<svg xmlns="http://www.w3.org/2000/svg" version="1.1" xmlns:xlink="http://www.w3.org/1999/xlink" xmlns:svgjs="http://svgjs.com/svgjs" width="7680" height="4320" preserveAspectRatio="none" viewBox="0 0 7680 4320"><g mask="url(&quot;#SvgjsMask1080&quot;)" fill="none"><rect width="7680" height="4320" x="0" y="0" fill="rgba(38, 84, 113, 1)"></rect><path d="M0,2776.497C534.853,2712.582,1065.059,2651.783,1534.947,2388.425C2025.422,2113.528,2517.294,1767.205,2729.668,1246.598C2939.28,732.764,2788.176,157.983,2665.617,-383.258C2551.296,-888.118,2277.722,-1309.97,2045.947,-1772.824C1729.768,-2404.234,1664.039,-3237.727,1056.233,-3597.198C436.529,-3963.706,-366.84,-3804.698,-1059.903,-3609.698C-1758.153,-3413.239,-2432.694,-3066.099,-2874.919,-2491.132C-3305.716,-1931.022,-3421.482,-1202.504,-3454.247,-496.646C-3484.751,160.491,-3352.764,808.558,-3055.325,1395.32C-2766.156,1965.768,-2373.097,2522.351,-1790.323,2785.797C-1235.282,3036.706,-604.816,2848.773,0,2776.497" fill="#1e435a"></path><path d="M7680 6504.351000000001C8094.148 6505.4259999999995 8484.797 6338.323 8833.067 6114.2080000000005 9181.183 5890.192 9465.541 5589.224 9665.426 5226.714 9876.912 4843.164 10112.963 4410.393 10006.846 3985.45 9901.951000000001 3565.4 9386.328 3412.9629999999997 9126.09 3066.956 8837.465 2683.205 8845.487000000001 2043.13 8403.989 1854.321 7968.85 1668.232 7447.42 1920.393 7051.575 2179.78 6705.926 2406.275 6590.47 2835.7110000000002 6371.485 3186.166 6190.299 3476.128 6008.67 3745.417 5876.286 4060.665 5700.997 4478.086 5334.0380000000005 4897.176 5471.88 5328.414 5608.102 5754.585 6135.87 5897.923 6530.773999999999 6108.23 6895.8060000000005 6302.628 7266.432 6503.277 7680 6504.351000000001" fill="#2e6588"></path></g><defs><mask id="SvgjsMask1080"><rect width="7680" height="4320" fill="#ffffff"></rect></mask></defs></svg>