<svg xmlns="http://www.w3.org/2000/svg" version="1.1" xmlns:xlink="http://www.w3.org/1999/xlink" xmlns:svgjs="http://svgjs.com/svgjs" width="7680" height="4320" preserveAspectRatio="none" viewBox="0 0 7680 4320"><g mask="url(&quot;#SvgjsMask1021&quot;)" fill="none"><rect width="7680" height="4320" x="0" y="0" fill="url(#SvgjsLinearGradient1022)"></rect><circle r="64.695" cx="7319.615" cy="2437.875" filter="url(#SvgjsFilter1023)" fill="rgba(51, 121, 194, 0.58)"></circle><circle r="38.51" cx="3531.9300000000003" cy="2222.34" filter="url(#SvgjsFilter1023)" fill="rgba(51, 121, 194, 0.58)"></circle><circle r="55.06" cx="1850.1699999999998" cy="2881.88" filter="url(#SvgjsFilter1023)" fill="rgba(51, 121, 194, 0.58)"></circle><circle r="49.035" cx="1910.1950000000002" cy="3070.765" filter="url(#SvgjsFilter1023)" fill="rgba(51, 121, 194, 0.58)"></circle><circle r="52.605" cx="1297.115" cy="1591.515" filter="url(#SvgjsFilter1023)" fill="rgba(51, 121, 194, 0.58)"></circle><circle r="66.85" cx="815.46" cy="2406.06" filter="url(#SvgjsFilter1023)" fill="rgba(51, 121, 194, 0.58)"></circle><circle r="68.825" cx="653.235" cy="4087.865" filter="url(#SvgjsFilter1023)" fill="rgba(51, 121, 194, 0.58)"></circle><circle r="39.945" cx="1570.8049999999998" cy="695.605" filter="url(#SvgjsFilter1023)" fill="rgba(51, 121, 194, 0.58)"></circle><circle r="61.285" cx="1696.065" cy="1704.4650000000001" filter="url(#SvgjsFilter1023)" fill="rgba(51, 121, 194, 0.58)"></circle><circle r="69.885" cx="6985.675" cy="4133.745" filter="url(#SvgjsFilter1023)" fill="rgba(51, 121, 194, 0.58)"></circle><circle r="66.005" cx="1671.3850000000002" cy="4275.1050000000005" filter="url(#SvgjsFilter1023)" fill="rgba(51, 121, 194, 0.58)"></circle><circle r="36.87" cx="7622.95" cy="4279.8099999999995" filter="url(#SvgjsFilter1023)" fill="rgba(51, 121, 194, 0.58)"></circle><circle r="54.785" cx="6927.3949999999995" cy="4241.675" filter="url(#SvgjsFilter1023)" fill="rgba(51, 121, 194, 0.58)"></circle><circle r="39.65" cx="7604.42" cy="767.5699999999999" filter="url(#SvgjsFilter1023)" fill="rgba(51, 121, 194, 0.58)"></circle><circle r="54.77" cx="1788.32" cy="2041.67" filter="url(#SvgjsFilter1023)" fill="rgba(51, 121, 194, 0.58)"></circle><circle r="50.215" cx="4012.8450000000003" cy="3336.5950000000003" filter="url(#SvgjsFilter1023)" fill="rgba(51, 121, 194, 0.58)"></circle><circle r="62.26" cx="2968.6000000000004" cy="3111.86" filter="url(#SvgjsFilter1023)" fill="rgba(51, 121, 194, 0.58)"></circle><circle r="48.98" cx="2826.06" cy="1947.03" filter="url(#SvgjsFilter1023)" fill="rgba(51, 121, 194, 0.58)"></circle><circle r="65.755" cx="6561.095" cy="1061.5149999999999" filter="url(#SvgjsFilter1023)" fill="rgba(51, 121, 194, 0.58)"></circle><circle r="44.13" cx="7295.76" cy="469.9" filter="url(#SvgjsFilter1023)" fill="rgba(51, 121, 194, 0.58)"></circle><path d="M4585.8 3164.2L4670.5 3248.3 4601.8 3270.1C4594.4 3271.8 4588.6 3280.9 4589.5 3291.7 4594.5 3299.9 4603.6 3305.7 4611.9 3300.7L4698.7 3276.4 4767.7 3339.1 4586.5 3389.4C4578.3 3394.4 4572.5 3403.5 4574.2 3410.9 4578.4 3422.5 4587.5 3428.3 4595.8 3423.3L4795.9 3367.1 4898.1 3466.1 4736.7 3493.2 4867 3592.1 4730.6 3632.3 4579.4 3489.6C4580.2 3486.2 4576.9 3485.4 4573.6 3484.6 4567 3483 4559.5 3484.7 4554.6 3490.5 4549.6 3496.3 4550.5 3507 4555.5 3515.3L4692.5 3644 4602.4 3667.5 4536.8 3605.6C4534.3 3601.5 4531 3600.7 4527.6 3599.8 4524.3 3599 4516.9 3600.7 4511.9 3606.5 4507 3612.3 4507.9 3623.1 4513.7 3628L4564.3 3679.2 4450.2 3714.3C4439.5 3715.2 4437 3725.2 4437.9 3735.9 4439.6 3743.4 4448.7 3749.1 4460.3 3744.9L4573.6 3713.1 4556.4 3782.7C4554 3792.6 4562.3 3801.7 4568.9 3803.4 4578.8 3805.8 4587.1 3800.8 4589.6 3790.9L4611.6 3701.4 4701.8 3677.9 4657.7 3856.9C4655.2 3866.8 4660.2 3875.1 4670.2 3877.5 4676.8 3879.1 4688.4 3875 4690.8 3865L4739.8 3666.2 4876.3 3626 4821.3 3777.7 4970.1 3715.9 4935.8 3855.1 4739 3912C4727.4 3916.2 4725 3926.2 4726.6 3933.6 4728.3 3941.1 4737.5 3946.8 4748.2 3946L4926.8 3891.5 4904.8 3981 4817.1 4008.6C4806.4 4009.5 4800.6 4018.6 4804.8 4030.2 4806.5 4037.6 4815.6 4043.4 4827.2 4039.2L4895 4020.8 4866.4 4136.8C4864 4146.7 4869 4155 4878.9 4157.4S4897.1 4154.9 4899.6 4145L4928.1 4029 4979.6 4076.8C4987.9 4085.9 4998.7 4085 5003.6 4079.2 5012.7 4070.9 5011.9 4060.1 5002.7 4054.4L4937.9 3989.2 4960 3899.7 5092.9 4030.9C5102 4036.6 5112.8 4035.8 5117.7 4030 5126.8 4021.7 5125.9 4010.9 5116.8 4005.1L4969 3863.2 5003.3 3724 5106.3 3847.9 5128.1 3688 5230.3 3787 5181.3 3985.9C5178.9 3995.8 5187.2 4004.9 5193.8 4006.5 5203.8 4009 5212 4004 5214.5 3994L5259.4 3811.7 5327.5 3877.7 5305.4 3967.2C5303 3977.2 5308 3985.4 5317.9 3987.9 5324.6 3989.5 5336.1 3985.3 5338.6 3975.4L5355.7 3905.8 5441.3 3986.6C5449.6 3995.7 5460.3 3994.8 5466.1 3985.7 5471 3979.9 5473.5 3970 5464.4 3964.2L5379.6 3880 5448.3 3858.3C5455.7 3856.6 5461.5 3847.5 5459.8 3840 5458.1 3832.6 5452.3 3827.6 5449 3826.8 5445.7 3826 5442.4 3825.2 5438.2 3827.7L5351.4 3852 5282.5 3789.3 5463.6 3739C5471.9 3734 5477.6 3724.9 5475.9 3717.5 5474.3 3710 5468.5 3705.1 5461.8 3703.4 5458.5 3702.6 5458.5 3702.6 5454.4 3705.1L5254.2 3761.3 5152.1 3662.3 5313.4 3635.2 5183.1 3536.3 5319.6 3496.1 5470.7 3638.8C5476.5 3643.8 5486.5 3646.2 5495.5 3637.9 5500.5 3632.1 5499.6 3621.3 5494.6 3613.1L5357.6 3484.4 5447.7 3460.9 5513.4 3522.8C5518.4 3531 5529.1 3530.2 5538.2 3521.9 5543.1 3516.1 5542.3 3505.3 5537.3 3497L5485.8 3449.2 5599.9 3414C5610.7 3413.2 5613.1 3403.2 5612.3 3392.5 5609.8 3388.3 5603.9 3383.4 5600.6 3382.6 5597.3 3381.8 5594 3380.9 5589.9 3383.4L5476.6 3415.3 5493.7 3345.7C5496.2 3335.7 5487.9 3326.7 5481.2 3325L5481.2 3325C5471.3 3322.6 5463 3327.6 5460.6 3337.5L5438.5 3427 5348.4 3450.5 5392.5 3271.5C5394.9 3261.6 5389.9 3253.3 5380 3250.9S5361.8 3253.4 5359.3 3263.4L5310.3 3462.2 5173.9 3502.4 5228.8 3350.7 5080 3412.5 5114.3 3273.3 5311.1 3216.3C5322.7 3212.2 5325.2 3202.2 5323.5 3194.8 5321.8 3187.3 5312.7 3181.6 5301.9 3182.4L5124.1 3233.5 5145.3 3147.4 5233 3119.7C5243.8 3118.9 5249.5 3109.8 5245.3 3098.2 5243.7 3090.7 5234.5 3085 5223.8 3085.8L5155.1 3107.6 5183.7 2991.6C5186.2 2981.7 5181.2 2973.4 5171.2 2970.9S5153 2973.5 5150.6 2983.4L5122 3099.4 5070.5 3051.6C5068 3047.5 5064.7 3046.6 5061.4 3045.8 5054.7 3044.2 5050.6 3046.7 5046.5 3049.2 5037.4 3057.5 5038.3 3068.3 5047.4 3074L5112.2 3139.2 5090.1 3228.7 4957.2 3097.5C4953.9 3096.7 4950.6 3095.9 4947.3 3095.1 4940.7 3093.4 4936.5 3095.9 4932.4 3098.4 4923.3 3106.7 4924.2 3117.5 4933.3 3123.3L5081.2 3265.1 5046.9 3404.3 4943.8 3280.5 4922 3440.4 4819.8 3341.4 4868.8 3142.5C4871.3 3132.6 4863 3123.5 4856.3 3121.9 4846.4 3119.4 4838.1 3124.4 4835.7 3134.4L4791.6 3313.3 4722.7 3250.6 4744.7 3161.2C4747.1 3151.2 4742.2 3143 4732.2 3140.5S4714 3143.1 4711.6 3153L4694.4 3222.6 4608.9 3141.8C4606.4 3137.6 4603 3136.8 4599.7 3136 4596.4 3135.2 4589 3136.9 4584 3142.7 4579.1 3148.5 4576.6 3158.4 4585.8 3164.2ZM4966.4 3359.9L5050.4 3461.5 5171.9 3410.5 5126.8 3536.5 5230.5 3614.8 5101.5 3639.3 5083.7 3768.5 4999.8 3666.9 4878.2 3717.9 4922.5 3595.2 4819.6 3513.6 4947.8 3492.4 4966.4 3359.9Z" fill="rgba(51, 121, 194, 0.58)"></path><path d="M7475.3 3419.6L7498 3244.7 7535.8 3214 7636.6 3254.9 7644.3 3304 7536.6 3444.5C7535.8 3446.5 7535.8 3446.5 7535 3448.5 7533.4 3452.4 7533.8 3457.2 7538.9 3461.6 7544.8 3464 7549.6 3463.6 7553.9 3458.5L7647.7 3335.4 7658.4 3411.1 7617.7 3465.9C7617.7 3465.9 7616.9 3467.9 7616.9 3467.9 7615.3 3471.9 7615.7 3476.6 7620.8 3481 7623.9 3484.6 7631.5 3483 7635.9 3477.9L7663.8 3443.2 7671 3499.1C7671.4 3503.9 7676.5 3508.2 7683.2 3508.7S7693.2 3501.2 7693.6 3494.5L7685.6 3440.5 7721.1 3466.5C7726.2 3470.9 7733.7 3469.3 7738.1 3464.2 7739.7 3460.2 7740.2 3453.5 7735 3449.1L7680.2 3408.4 7670.3 3330.7 7793.4 3424.5C7798.5 3428.8 7806.1 3427.3 7809.6 3424.2 7812.1 3418.2 7812.5 3411.5 7807.4 3407.1L7666.1 3301.4 7659.2 3250.2 7743.1 3185.3 7790.6 3204.6 7860.7 3366.6C7863 3372.1 7868.9 3374.5 7874.5 3372.2S7882.5 3363.9 7880.1 3358.4L7818.3 3215.8 7891.4 3245.5 7917.2 3306.7C7919.6 3312.2 7925.5 3314.6 7933 3313.1S7941 3304.8 7938.7 3299.2L7919.1 3256.8 7972.4 3278.4C7978.4 3280.8 7984.7 3276.5 7987.1 3270.6 7989.5 3264.6 7987.2 3259.1 7981.3 3256.7L7927.9 3235 7969.6 3217.4C7977.1 3215.9 7979.5 3209.9 7975.2 3203.6 7972.9 3198 7966.9 3195.6 7961.4 3197.9L7900.2 3223.8 7827.1 3194.1 7970.8 3135C7976.4 3132.7 7979.6 3124.8 7977.2 3119.2S7968.9 3111.2 7963.4 3113.6L7799.4 3182.8 7752 3163.6 7737.9 3056.5 7777.6 3026.6 7952.6 3049.3C7959.4 3049.8 7963.7 3044.6 7966.2 3038.7 7966.6 3032 7961.5 3027.6 7955.5 3025.2L7801.9 3006.6 7862.4 2959.7 7930.1 2968.8C7936.8 2969.2 7941.2 2964.1 7943.6 2958.2 7943.2 2953.4 7938.9 2947.1 7932.2 2946.6L7888.6 2940.5 7932.8 2905.4C7936.4 2902.3 7936.8 2895.6 7934.4 2890 7929.3 2885.6 7922.6 2885.2 7919 2888.3L7874.8 2923.4 7879.8 2877C7879.5 2872.3 7875.1 2865.9 7870.4 2866.3 7864.5 2863.9 7860.9 2867 7858.5 2873 7858.5 2873 7857.7 2874.9 7857.7 2874.9L7848.6 2942.6 7788.1 2989.5 7806.8 2835.8C7807.2 2829.1 7804.9 2823.6 7798.1 2823.1 7791.4 2822.7 7787.8 2825.8 7786.2 2829.8 7785.4 2831.8 7785.4 2831.8 7785.4 2831.8L7763.9 3009.5 7724.1 3039.4 7623.3 2998.5 7617.6 2950.1 7724.1 2806.9C7727.7 2803.7 7726.2 2796.2 7723 2792.6 7717.9 2788.2 7710.3 2789.8 7706 2794.9L7612.2 2918 7601.5 2842.3 7642.2 2787.4C7646.6 2782.3 7647 2775.6 7641.1 2773.2 7636 2768.8 7628.4 2770.3 7624.9 2773.5L7598.1 2811 7590.9 2755.1C7588.5 2749.5 7583.4 2745.2 7576.7 2744.7 7573.9 2745.9 7570.3 2749 7568.7 2753 7567.9 2755 7567.9 2755 7569.1 2757.8L7576.3 2813.6 7538.8 2786.9C7533.7 2782.5 7528.1 2784.9 7524.6 2788 7523.8 2790 7523.8 2790 7523 2792 7521.3 2795.9 7521.7 2800.7 7524.9 2804.3L7579.7 2845 7590.4 2920.7 7467.3 2826.9C7461.4 2824.5 7454.6 2824.1 7452.2 2830 7449.5 2831.2 7449.5 2831.2 7448.7 2833.2 7447.1 2837.1 7449.4 2842.7 7452.6 2846.3L7595.8 2952.8 7601.5 3001.2 7516.8 3068.1 7471.3 3049.6 7402 2885.6C7399.7 2880.1 7391.8 2876.9 7386.2 2879.2S7377.5 2889.5 7379.8 2895L7441.7 3037.6 7370.5 3008.7 7342.7 2946.7C7340.3 2941.2 7334.4 2938.8 7328.9 2941.1 7323.3 2943.5 7320.9 2949.4 7323.2 2954.9L7340.8 2996.6 7287.5 2975C7283.5 2973.4 7276 2974.9 7273.6 2980.8 7271.2 2986.8 7274.7 2995.1 7278.6 2996.7L7332 3018.4 7290.3 3036C7287.5 3037.2 7284.8 3038.3 7284 3040.3 7282.4 3044.3 7283.5 3047 7284.7 3049.8 7287.1 3055.4 7293 3057.8 7298.5 3055.4L7361.7 3030.4 7432.8 3059.3 7289.1 3118.4C7286.3 3119.6 7285.5 3121.5 7283.9 3125.5 7283.1 3127.5 7282.3 3129.4 7283.5 3132.2 7285.8 3137.8 7293.7 3141 7299.3 3138.6L7462.5 3071.3 7507.9 3089.8 7522.8 3194.9 7484.2 3227.5 7307.3 3204C7302.5 3204.4 7297 3206.8 7295.4 3210.7 7294.6 3212.7 7294.6 3212.7 7296.5 3213.5 7294.1 3219.4 7298.5 3225.8 7305.2 3226.2L7458.8 3244.8 7397.5 3293.6 7329.8 3284.6C7325.1 3285 7321.5 3288.1 7319.9 3292.1 7319.9 3292.1 7319.1 3294 7319.1 3294 7316.7 3300 7321 3306.3 7327.7 3306.8L7374.1 3311.7 7329.9 3346.8C7327.1 3348 7326.3 3349.9 7325.5 3351.9 7323.9 3355.9 7324.3 3360.6 7326.3 3361.4 7330.6 3367.8 7337.3 3368.2 7342.9 3365.9L7387 3330.8 7380.9 3374.4C7380.4 3381.1 7384.8 3387.5 7391.5 3387.9 7396.3 3387.5 7402.6 3383.2 7402.2 3378.5L7411.3 3310.8 7471.8 3263.9 7453.1 3417.5C7452.7 3424.3 7457.8 3428.7 7463.8 3431.1 7468.5 3430.7 7474.9 3426.4 7475.3 3419.6ZM7633.6 3228.3L7556.5 3197 7544.6 3192.2 7542.7 3179.9 7531.7 3099.4 7530.5 3085.2 7540.5 3077.7 7604.5 3027.7 7614.5 3020.2 7626.3 3025.1 7703.4 3056.4 7715.3 3061.2 7717.2 3073.5 7728.3 3153.9 7730.2 3166.2 7719.4 3175.7 7655.4 3225.7 7645.4 3233.1 7633.6 3228.3Z" fill="rgba(51, 121, 194, 0.58)"></path><path d="M2311.3 3027L2049.3 3101.8 1963.4 3051.6 2051.9 3026.7C2062.1 3026.6 2065.4 3016.3 2065.3 3006.1 2061.8 2999.3 2051.5 2992.6 2044.7 2996.1L1922.2 3028.2 1836.3 2981.5 1921 2932.7 2044.3 2965.3C2044.3 2965.3 2047.7 2965.3 2047.7 2965.3 2054.5 2965.2 2061.3 2958.3 2064.6 2951.5 2064.5 2941.2 2061 2934.4 2050.7 2931.1L1961.7 2908.3 2046.5 2859.5 2310.1 2924.6C2310.1 2924.6 2313.5 2928 2313.5 2928 2320.4 2927.9 2327.1 2921 2330.4 2914.2 2333.7 2903.9 2326.8 2893.7 2316.5 2893.8L2087.1 2835.1 2188.8 2772.5 2291.5 2798.6C2291.5 2798.6 2291.5 2798.6 2294.9 2798.5 2301.8 2798.4 2308.5 2794.9 2311.9 2788.1 2311.8 2777.8 2308.2 2767.6 2297.9 2764.4L2229.5 2748.1 2304 2702.8C2314.2 2699.3 2314.1 2689.1 2310.6 2682.3 2307.1 2672.1 2296.8 2668.8 2286.6 2675.7L2212 2717.6 2231.8 2652.5C2231.6 2642.2 2228.1 2632.1 2217.9 2632.2 2207.6 2628.9 2200.8 2632.4 2197.5 2642.7L2171.4 2745.4 2069.7 2804.6 2128.4 2571.8C2131.7 2564.9 2124.8 2554.8 2114.5 2551.5 2107.7 2551.6 2097.5 2555.1 2094.2 2565.4L2029 2829 1944.3 2877.8 1967.1 2788.8C1970.4 2778.5 1963.5 2771.7 1953.2 2768.4 1946.4 2765.1 1936.2 2772.1 1932.9 2778.9L1903.6 2902.2 1818.9 2954.4 1817.7 2855.4 1905.4 2765.6C1912.1 2758.7 1912 2748.5 1905.1 2741.7 1901.6 2734.9 1888 2735.1 1881.2 2742L1817.1 2807.6 1816 2708.6 2008.2 2515.2C2015 2508.3 2014.9 2498 2008 2491.3 2001.1 2484.5 1990.8 2484.7 1984.1 2491.6L1815.4 2660.8 1814 2544.8 1888.2 2468.8C1895 2461.9 1894.8 2451.7 1887.9 2444.9 1881 2438.2 1870.8 2438.3 1864 2445.2L1813.4 2493.6 1812.4 2408.3C1812.3 2398 1805.4 2391.3 1795.1 2391.4 1784.9 2391.5 1778.1 2398.4 1778.3 2408.7L1779.3 2494 1730.9 2446.8C1724 2440 1713.8 2440.2 1707 2447.1S1700.4 2464.2 1707.3 2471L1779.9 2541.8 1781.3 2661.2 1612 2496C1605.1 2489.2 1594.9 2489.4 1588.2 2496.3 1581.4 2503.2 1581.5 2513.4 1588.4 2520.2L1781.8 2709 1783 2808 1717.4 2743.9C1710.5 2737.2 1700.2 2737.3 1693.5 2744.2 1686.8 2751.1 1686.9 2761.4 1693.8 2768.1L1783.6 2855.8 1784.7 2951.4 1702.2 2904.6 1666.6 2782.1C1663.1 2775.3 1652.8 2768.6 1646 2772.1 1635.8 2775.6 1632.5 2782.5 1632.6 2792.7L1657.6 2881.2 1575.1 2834.4 1500.3 2572.4C1496.8 2562.2 1489.9 2558.9 1479.7 2559 1469.5 2562.5 1466.2 2572.8 1466.3 2579.6L1530.4 2811 1427.3 2750.8 1398.8 2652.1C1398.7 2641.9 1388.4 2638.6 1378.2 2638.7 1371.4 2642.2 1364.7 2652.5 1368.2 2662.7L1386.1 2727.4 1310.5 2687.3C1303.6 2680.6 1293.4 2684.1 1286.7 2694.4 1283.4 2701.3 1286.9 2711.5 1293.8 2714.8L1369.4 2758.3 1301.3 2776.2C1291.1 2779.7 1287.8 2790 1291.3 2796.8 1291.4 2807 1298.3 2810.4 1305.1 2810.3 1308.6 2810.2 1308.6 2810.2 1312 2810.2L1410.6 2781.7 1513.7 2841.9 1285.8 2906.1C1275.6 2906.2 1272.3 2916.5 1272.4 2926.7 1275.9 2933.5 1282.7 2936.8 1289.6 2936.8 1293 2936.7 1293 2936.7 1293 2936.7L1558.4 2865.3 1640.9 2912.1 1552.4 2937.1C1542.2 2940.6 1538.9 2947.5 1539 2957.7 1542.5 2964.5 1549.4 2971.2 1556.2 2971.1 1559.7 2971.1 1559.7 2971.1 1563.1 2971.1L1685.5 2935.5 1768 2982.3 1686.7 3031 1563.4 3001.8C1553.1 2998.5 1543 3005.4 1539.7 3012.3 1539.8 3022.5 1543.3 3032.7 1553.6 3032.6L1642.6 3055.5 1561.3 3107.6 1294.2 3039.1C1287.3 3035.8 1277.2 3042.7 1273.8 3049.6 1274 3059.8 1277.5 3070 1287.8 3073.3L1517.2 3132 1415.5 3191.3 1316.2 3165.2C1305.9 3161.9 1295.7 3168.8 1295.9 3179 1292.5 3185.9 1296.1 3196.1 1306.3 3199.4L1374.8 3215.7 1300.2 3260.9C1293.5 3264.4 1290.2 3274.7 1293.7 3284.9 1297.2 3288.3 1304 3291.6 1310.8 3291.5 1310.8 3291.5 1314.3 3291.5 1317.7 3291.4L1392.2 3246.2 1376 3314.6C1372.6 3321.5 1379.6 3331.7 1386.5 3335 1389.9 3335 1389.9 3335 1389.9 3335 1400.1 3334.8 1406.9 3327.9 1406.8 3321.1L1432.9 3221.8 1534.6 3159.1 1475.9 3392C1476 3402.2 1479.5 3409 1489.8 3412.3 1489.8 3412.3 1493.2 3412.2 1493.2 3412.2 1500 3412.2 1506.8 3408.7 1510.1 3398.4L1578.7 3134.7 1660 3086 1637.2 3175C1637.3 3185.2 1640.8 3195.4 1651.1 3195.3 1651.1 3198.7 1654.5 3198.7 1654.5 3198.7 1661.3 3198.6 1668.1 3191.7 1671.4 3184.8L1700.7 3061.6 1785.4 3012.8 1786.6 3108.4 1698.9 3198.2C1692.1 3205.1 1692.3 3218.7 1699.2 3225.5 1706.1 3228.8 1716.3 3228.7 1723.1 3225.2L1787.1 3156.1 1788.3 3255.1 1599.5 3448.5C1592.7 3455.4 1592.8 3465.7 1599.7 3472.4 1606.6 3479.2 1616.9 3479 1623.6 3472.1L1788.9 3302.9 1790.3 3422.4 1719.5 3494.9C1712.7 3501.8 1712.9 3512 1719.8 3518.8S1736.9 3525.4 1743.7 3518.5L1790.9 3470.2 1791.9 3555.5C1792 3565.7 1798.9 3572.5 1809.2 3572.3 1819.4 3572.2 1826.1 3565.3 1826 3555.1L1825 3469.7 1876.8 3516.9C1880.2 3520.3 1883.7 3523.7 1887.1 3523.6 1890.5 3523.6 1897.3 3520.1 1900.7 3516.6 1907.4 3509.7 1907.3 3499.5 1900.4 3492.7L1824.4 3422 1823 3302.5 1995.7 3467.7C1999.1 3471.1 2002.6 3474.5 2006 3474.4 2009.4 3474.4 2016.2 3470.9 2019.5 3467.4 2026.3 3460.5 2026.2 3450.3 2019.3 3443.5L1822.4 3254.7 1821.3 3155.7 1886.9 3223.2C1890.4 3226.6 1897.2 3226.5 1900.6 3226.5 1904 3226.4 1907.5 3226.4 1910.8 3223 1917.6 3216 1917.4 3202.4 1910.5 3199.1L1820.7 3108 1819.6 3012.4 1905.5 3059.2 1937.6 3181.7C1941.1 3188.5 1948 3195.2 1954.9 3195.1 1958.3 3195.1 1958.3 3195.1 1958.2 3191.7 1968.5 3191.5 1975.2 3181.2 1971.7 3171L1946.7 3082.6 2032.6 3129.3 2104 3394.8C2107.5 3401.5 2114.4 3404.9 2121.2 3404.8 2124.6 3404.7 2124.6 3404.7 2124.6 3404.7 2134.8 3401.2 2141.6 3394.3 2138 3384.1L2073.8 3152.7 2177 3213 2205.4 3311.6C2209 3321.8 2215.8 3325.2 2222.7 3325.1 2222.7 3325.1 2226.1 3325 2226.1 3325 2236.3 3321.5 2239.6 3311.2 2239.5 3304.4L2218.2 3236.4 2293.8 3279.8C2297.2 3279.8 2300.6 3279.8 2304.1 3279.7 2307.5 3279.7 2314.3 3276.2 2317.6 3272.7 2320.9 3262.5 2320.8 3252.2 2310.5 3248.9L2234.9 3205.5 2303 3187.6C2313.2 3184 2316.5 3173.8 2316.4 3166.9 2312.8 3156.7 2302.6 3153.4 2292.3 3153.6L2193.7 3182 2090.6 3125.2 2318.5 3061.1C2328.7 3057.6 2335.4 3047.2 2331.9 3040.4 2328.4 3030.2 2321.5 3023.5 2311.3 3027Z" fill="rgba(51, 121, 194, 0.58)"></path><path d="M6163.6 2151.1L6318.3 1913.9 6565.6 1863.7 6485.7 2103.1 6231.4 2227.8C6231.4 2227.8 6228.9 2230.1 6228.9 2230.1 6223.7 2234.6 6223.2 2244.2 6225.1 2251.6 6229.4 2261.6 6241.3 2264.7 6248.9 2257.9L6470.8 2148.1 6432.3 2264.3 6335 2313.9C6335 2313.9 6332.4 2316.2 6332.4 2316.2 6327.3 2320.7 6326.7 2330.4 6328.7 2337.7 6332.9 2347.7 6344.8 2350.8 6352.5 2344L6419.7 2311.9 6390.4 2397.1C6387.5 2404.2 6394 2416.7 6401.1 2419.5 6410.4 2424.9 6420.6 2415.9 6423.5 2408.8L6452.9 2323.5 6485 2390.8C6489.3 2400.7 6501.2 2403.9 6508.8 2397.1 6518.8 2392.9 6521.9 2381 6515.1 2373.3L6465.5 2276 6506.2 2162.4 6616 2384.3C6620.3 2394.2 6632.2 2397.3 6639.8 2390.6 6649.7 2386.3 6652.9 2374.4 6646.1 2366.8L6521.4 2112.5 6601.3 1873.2 6770.9 2064.9 6753.6 2349.1C6753 2358.8 6759.8 2366.4 6769.4 2367 6779 2367.6 6786.7 2360.8 6787.3 2351.2L6802.6 2100.6 6884 2192.7 6877.6 2298.7C6877 2308.3 6883.8 2316 6893.4 2316.6 6903 2317.1 6910.7 2310.4 6911.3 2300.7L6915.7 2228.5 6979 2300C6983.3 2309.9 6995.5 2308.3 7003.1 2301.5 7010.8 2294.7 7011.4 2285.1 7004.6 2277.4L6945.8 2210.9 7018.1 2215.3C7027.7 2215.9 7035.4 2209.1 7035.9 2199.5S7029.7 2182.2 7020.1 2181.6L6914.1 2175.2 6832.7 2083.1 7083.2 2098.4C7092.9 2099 7100.5 2092.2 7101.1 2082.6 7101.7 2072.9 7094.9 2065.3 7085.3 2064.7L6801 2047.4 6633.6 1858.2 6880.9 1808 7111 1959.9C7120.4 1965.3 7130.3 1961 7138 1954.3 7143.4 1944.9 7139.1 1935 7132.3 1927.3L6925.4 1791.4 7045.4 1767.3 7136 1828.4C7145.3 1833.8 7155.2 1829.6 7162.9 1822.8 7168.3 1813.4 7164.1 1803.5 7159.5 1798.4L7096.7 1758.3 7184.9 1739.5C7192.3 1737.5 7202.5 1728.5 7198.3 1718.5 7194 1708.6 7187.3 1700.9 7177.3 1705.2L7089.1 1724 7129.2 1661.1C7134.6 1651.8 7130.4 1641.9 7125.9 1636.8 7118.8 1633.9 7109.2 1633.3 7104.1 1637.8 7104.1 1637.8 7101.5 1640.1 7101.5 1640.1L7040.4 1730.7 6920.4 1754.8 7056.3 1547.9C7061.7 1538.5 7057.5 1528.6 7053 1523.5 7045.9 1520.6 7036.3 1520.1 7031.2 1524.6 7031.2 1524.6 7028.6 1526.8 7028.6 1526.8L6873.9 1764 6626.6 1814.3 6706.5 1574.9 6960.7 1450.2C6970.7 1445.9 6973.8 1434 6967 1426.4 6962.8 1416.4 6950.9 1413.3 6943.2 1420.1L6721.3 1529.9 6759.8 1413.7 6857.2 1364C6867.1 1359.8 6870.3 1347.9 6863.5 1340.2 6859.2 1330.3 6847.3 1327.2 6839.7 1334L6772.4 1366.1 6801.8 1280.9C6804.7 1273.8 6798.2 1261.3 6791.1 1258.5 6784 1255.6 6776.6 1257.6 6771.5 1262.1 6769 1264.4 6766.4 1266.6 6766.1 1271.4L6736.7 1356.7 6704.6 1289.5C6700.3 1279.5 6688.4 1276.4 6680.8 1283.2 6680.8 1283.2 6678.2 1285.4 6678.2 1285.4 6673.1 1289.9 6672.5 1299.6 6674.5 1307L6724.2 1404.3 6685.6 1520.4 6575.8 1298.5C6571.6 1288.6 6559.7 1285.5 6552 1292.2 6552 1292.2 6549.5 1294.5 6549.5 1294.5 6544.4 1299 6543.8 1308.7 6545.8 1316L6670.5 1570.3 6590.6 1809.6 6423.2 1620.5 6440.6 1336.2C6441.1 1326.6 6434.4 1318.9 6424.7 1318.3 6415.1 1317.7 6407.4 1324.5 6406.8 1334.2L6389.3 1582.2 6307.8 1490.1 6314.3 1384.1C6314.9 1374.5 6308.1 1366.8 6298.5 1366.2S6281.2 1372.4 6280.6 1382.1L6276.2 1454.4 6217.4 1387.9C6210.6 1380.2 6200.9 1379.6 6193.3 1386.4 6185.6 1393.2 6185 1402.8 6191.8 1410.5L6250.6 1477 6178.3 1472.6C6173.5 1472.3 6168.7 1472 6163.6 1476.5S6158.2 1485.8 6157.9 1490.7C6157.3 1500.3 6164.1 1508 6173.7 1508.6L6279.7 1515 6361.2 1607 6110.6 1591.8C6105.8 1591.5 6101 1591.2 6095.9 1595.7 6093.3 1598 6090.5 1605 6090.2 1609.9 6089.6 1619.5 6096.4 1627.2 6106 1627.7L6390.3 1645.1 6557.7 1834.2 6310.4 1884.4 6073.2 1729.7C6066.1 1726.9 6056.5 1726.3 6051.4 1730.8 6051.4 1730.8 6048.8 1733.1 6048.8 1733.1 6043.4 1742.4 6047.6 1752.3 6052.1 1757.5L6259.1 1893.4 6139.1 1917.5 6048.5 1856.4C6041.5 1853.5 6031.8 1852.9 6026.7 1857.5 6026.7 1857.5 6024.1 1859.7 6024.1 1859.7 6018.7 1869.1 6023 1879 6027.5 1884.1L6090.3 1924.2 6002.1 1943C5999.6 1945.3 5994.8 1945 5992.2 1947.2 5987.1 1951.8 5984.3 1958.9 5986.2 1966.2 5990.4 1976.2 5997.2 1983.8 6007.2 1979.6L6095.4 1960.8 6055.3 2023.6C6049.9 2033 6054.1 2042.9 6058.6 2048 6068 2053.4 6077.9 2049.2 6083 2044.7L6144.1 1954.1 6264.1 1930 6128.1 2136.9C6122.7 2146.2 6127 2156.2 6131.5 2161.3 6146 2162.2 6158.1 2160.5 6163.6 2151.1Z" fill="rgba(51, 121, 194, 0.58)"></path><path d="M3131 3921.4L3177.9 3856.1 3201.9 3904.5C3204 3909.8 3211.4 3913 3219.3 3911.2 3224.8 3906.5 3228.1 3899.1 3226 3893.8L3195.7 3829.4 3239.5 3769 3299.9 3900.3C3304.3 3908.4 3311.8 3911.6 3317.3 3907 3325.2 3905.1 3328.4 3897.7 3324 3889.6L3257.1 3744.9 3295.4 3689.2 3451 3702.9 3477.1 3756.6 3377.5 3894.3C3377.3 3896.8 3377.1 3899.4 3376.9 3901.9 3376.6 3904.5 3378.7 3909.8 3381.1 3912.6 3388.3 3918.4 3396.1 3916.5 3399.4 3909.1L3490.1 3783.4 3520.2 3850.3 3475.9 3915.8C3473.3 3915.6 3473.1 3918.1 3472.9 3920.7 3472.4 3925.8 3474.5 3931.1 3479.4 3934.1 3484.3 3937.1 3492.2 3935.2 3497.7 3930.6L3533.3 3877.2 3572.2 3960.3C3574.3 3965.6 3581.7 3968.8 3589.6 3967 3595.1 3962.3 3598.4 3954.9 3596.3 3949.6L3559.4 3871.8 3613 3876.5C3620.6 3877.2 3626.4 3870 3626.9 3864.9 3627.5 3857.2 3623.1 3849.1 3615.5 3848.5L3546.6 3842.4 3516.5 3775.5 3659.3 3788.1C3667 3788.7 3672.5 3784.1 3673.2 3776.4 3673.9 3768.8 3669.2 3763.2 3661.6 3762.6L3503.5 3748.6 3475 3692.2 3566 3564 3624.7 3569.1 3693.9 3716.6C3695.8 3724.5 3705.8 3727.9 3711.3 3723.3 3719.2 3721.4 3719.9 3713.7 3718 3705.9L3655.3 3571.8 3729.2 3578.4 3759.3 3645.3C3761.4 3650.6 3771.4 3654 3776.7 3651.9S3785.5 3639.9 3783.6 3632L3759.8 3581.1 3849.1 3588.9C3856.7 3589.6 3862.5 3582.4 3863.2 3574.8 3863.6 3569.7 3859.2 3561.6 3851.5 3560.9L3762.3 3553 3794.8 3504.5C3797.8 3499.6 3798.5 3492 3791.3 3486.2 3786.4 3483.2 3776 3484.8 3773 3489.7L3731.7 3550.3 3657.7 3543.8 3742.9 3422.8C3746.2 3415.4 3746.8 3407.7 3739.6 3402 3734.8 3399 3724.3 3400.6 3721.3 3405.5L3627.1 3541.1 3568.5 3535.9 3501.4 3393.8 3539.2 3343.2 3697.3 3357.1C3705 3357.8 3710.5 3353.1 3711.2 3345.5 3711.9 3337.8 3707.5 3329.7 3699.8 3329.1L3557 3316.5 3598.3 3255.9 3667.2 3261.9C3674.8 3262.6 3680.4 3258 3681.1 3250.3 3681.7 3242.7 3677.1 3237.1 3669.4 3236.4L3615.9 3231.7 3665.7 3161.6C3668.7 3156.7 3667.1 3146.3 3662.2 3143.3 3654.8 3140.1 3647.1 3139.4 3643.9 3146.8L3591.3 3219.3 3565.4 3163C3560.7 3157.5 3553.3 3154.2 3548 3156.3 3542.7 3158.4 3539.7 3163.3 3539.2 3168.4 3539.2 3168.4 3539 3171 3541.3 3173.7L3573.5 3246 3532.2 3306.6 3464.8 3167C3462.9 3159.1 3455.5 3155.9 3447.4 3160.3 3444.6 3162.6 3441.9 3165 3441.4 3170.1 3441.2 3172.6 3441 3175.2 3440.7 3177.7L3514.6 3330.7 3479.5 3379 3324 3365.3 3296 3303.7 3387.2 3173C3393 3165.8 3391.1 3157.9 3383.7 3154.7 3379 3149.1 3371.1 3151 3365.4 3158.2L3282.9 3276.9 3250.3 3209.7 3291.4 3151.7C3294.4 3146.8 3292.5 3138.9 3287.9 3133.4 3280.5 3130.2 3272.8 3129.5 3269.6 3136.9L3237.5 3180.3 3202.8 3107.9C3200.9 3100 3193.2 3099.3 3185.4 3101.2 3182.6 3103.5 3179.6 3108.4 3179.1 3113.5 3179.1 3113.5 3178.9 3116.1 3178.7 3118.6L3215.5 3196.4 3151.8 3190.8C3146.7 3190.3 3138.6 3194.7 3137.9 3202.4 3137.2 3210 3144.4 3215.8 3149.5 3216.3L3228.6 3223.2 3261.2 3290.4 3105.6 3276.7C3098 3276 3092.2 3283.2 3091.5 3290.8S3095.5 3304 3103.2 3304.7L3274 3319.8 3299.9 3376 3208.9 3504.2 3142.6 3498.4 3073.6 3348.4C3069 3342.8 3061.5 3339.6 3053.7 3341.5 3050.9 3343.8 3047.9 3348.7 3047.4 3353.8 3047.2 3356.3 3047 3358.9 3049.3 3361.6L3112 3495.7 3038.1 3489.1 3005.4 3422C3003.3 3416.7 2995.9 3413.5 2988 3415.3 2982.5 3420 2979.3 3427.4 2981.4 3432.7L3007.5 3486.4 2925.9 3479.2C2920.8 3478.8 2912.4 3485.8 2912 3490.9 2911.3 3498.5 2918.3 3506.8 2923.4 3507.3L3005 3514.5 2970.1 3560.2C2969.9 3562.8 2969.7 3565.3 2969.4 3567.9 2969 3573 2971.1 3578.3 2973.4 3581.1 2980.8 3584.3 2988.7 3582.4 2994.3 3577.8L3035.6 3517.2 3109.5 3523.7 3024.3 3644.7C3018.6 3651.9 3020.4 3659.8 3025.3 3662.8 3032.5 3668.5 3040.4 3666.7 3045.9 3662L3140.1 3526.4 3206.4 3532.3 3273.6 3674.4 3238.3 3725.2 3067.4 3710.2C3059.8 3709.5 3054.2 3714.1 3053.5 3721.8 3052.9 3729.4 3057.5 3735 3065.2 3735.7L3220.7 3749.4 3176.8 3809.8 3097.8 3802.8C3092.7 3802.3 3084.4 3809.3 3083.7 3817 3083 3824.6 3090.2 3830.4 3095.3 3830.8L3159.1 3836.5 3109.2 3906.6C3109 3909.2 3109 3909.2 3108.7 3911.7 3108.3 3916.8 3110.4 3922.1 3112.7 3924.9 3120.1 3928.1 3128 3926.3 3131 3921.4ZM3237.1 3535L3230.7 3519 3239.5 3506.9 3312.9 3402.9 3321.7 3390.8 3337 3392.1 3462 3403.2 3477.3 3404.5 3483.8 3417.9 3537.9 3533.2 3544.4 3546.6 3535.4 3561.3 3462.2 3662.8 3453.2 3677.4 3437.9 3676 3313 3665 3297.7 3663.7 3291.4 3647.7 3237.1 3535Z" fill="rgba(51, 121, 194, 0.58)"></path><path d="M502.1 664.2L588 776.2 584 814.9 503.8 848.7 471.6 825.1 453.3 684.7C452.6 683.2 452.6 683.2 452 681.6 450.6 678.4 447.7 676 442.4 676.4 437.6 678.4 435.2 681.3 435.6 686.6L452 809.3 403.2 772.5 395.3 718.4C395.3 718.4 394.6 716.8 394.6 716.8 393.3 713.7 390.4 711.2 385 711.6 381.2 711.4 377.8 716.5 378.2 721.9L382 757.3 346.3 729.7C343.4 727.3 338 727.7 334 731.2S332.6 741.1 336.1 745.1L371.1 771.1 336.4 776.5C331 776.9 327.6 782.1 328 787.4 329.3 790.6 332.9 794.6 338.3 794.2L392.3 786.3 441.8 824.7 319.1 841.2C313.8 841.6 310.4 846.7 310.1 850.5 312.1 855.2 315.7 859.3 321 858.9L460.8 839 493.6 864.1 482.7 948.3 444.9 964.1 313.7 912C309.3 910.1 304.6 912.1 302.7 916.6S302.9 925.8 307.4 927.6L422.9 973.4 364.7 997.9 315.6 977.8C311.1 976 306.4 978 303 983.1S303.1 992.3 307.6 994.2L342.7 1007.2 300.2 1025C295.5 1027 294.3 1033.1 296.3 1037.8 298.3 1042.5 302.8 1044.3 307.5 1042.3L350 1024.5 336.3 1058C332.9 1063.1 334.9 1067.8 340.9 1069 345.4 1070.8 350.1 1068.8 352 1064.4L372 1015.2 430.2 990.7 382.2 1105.4C380.3 1109.8 383 1116.1 387.5 1117.9S396.6 1117.8 398.5 1113.3L452.2 981.4 490 965.6 558.4 1018.2 552.8 1057.6 440.8 1143.6C436.8 1147.2 437.2 1152.6 439.2 1157.3 442.7 1161.3 448.1 1160.9 452.8 1158.9L550.4 1082.7 542.6 1143.4 499.1 1176.5C495.1 1180.1 495.5 1185.4 497.5 1190.2 500.4 1192.6 506.4 1193.8 510.5 1190.2L538.6 1169.1 533.4 1213.9C533.1 1217.7 536.7 1221.8 541.2 1223.6 546.5 1223.2 550.6 1219.6 550.9 1215.8L556.1 1171 579.4 1200.1C582.3 1202.6 588.4 1203.8 590.8 1200.9 595.6 1198.9 595.8 1195.1 593.8 1190.3 593.8 1190.3 593.2 1188.8 593.2 1188.8L560.1 1145.3 567.9 1084.6 644.1 1182.2C647.6 1186.2 652.1 1188 656.2 1184.5 660.2 1180.9 660.5 1177.1 659.1 1174 658.5 1172.4 658.5 1172.4 658.5 1172.4L570.3 1059.5 575.9 1020.1 656.1 986.4 686.7 1010.6 707.3 1151.9C707 1155.7 712.1 1159.1 715.9 1159.3 721.3 1158.9 724.7 1153.8 724.3 1148.4L707.9 1025.7 756.7 1062.6 764.6 1116.6C765 1122 768.6 1126.1 773.3 1124.1 778.7 1123.7 782.1 1118.5 782.3 1114.7L776.3 1078.4 812 1106C816.5 1107.8 821.8 1107.4 825.9 1103.8 826.8 1101.6 827.1 1097.8 825.7 1094.6 825.1 1093 825.1 1093 822.8 1092.1L787.2 1064.6 823.5 1058.5C828.9 1058.1 830.7 1053.6 831 1049.8 830.3 1048.3 830.3 1048.3 829.6 1046.7 828.3 1043.5 825.4 1041.1 821.6 1040.8L767.5 1048.7 718.7 1011.9 841.4 995.4C846.1 993.5 850.2 989.9 848.2 985.2 849.1 982.9 849.1 982.9 848.4 981.4 847.1 978.2 842.6 976.4 838.8 976.2L697.5 996.7 667 972.6 677.2 886.8 713.4 871.6 845.2 925.3C849.7 927.1 856 924.5 857.8 920S857 909.3 852.5 907.4L737 861.6 793.6 837.8 844.3 857.2C848.8 859 853.5 857 855.3 852.6 857.2 848.1 855.2 843.4 850.7 841.5L817.2 827.9 859.7 810C862.8 808.7 866.2 803.6 864.2 798.8 862.2 794.1 855.5 791.4 852.4 792.7L809.9 810.6 823.6 777.1C824.5 774.8 825.4 772.6 824.7 771 823.4 767.9 821.2 767 818.9 766 814.5 764.2 809.7 766.2 807.9 770.7L786.3 820.5 729.7 844.3 777.7 729.7C778.6 727.5 778 725.9 776.6 722.7 776 721.2 775.3 719.6 773.1 718.7 768.6 716.9 762.3 719.5 760.5 724L706.1 854.3 669.9 869.5 602.1 818.4 605.5 778.1 719 691.4C721.5 688.5 723.3 684.1 722 680.9 721.4 679.3 721.4 679.3 719.8 680 717.8 675.3 711.8 674.1 707.7 677.7L610.2 753.9 617.3 691.6 660.8 658.5C663.2 655.6 663.5 651.8 662.2 648.7 662.2 648.7 661.5 647.1 661.5 647.1 659.5 642.4 653.5 641.2 649.4 644.8L620.4 668.1 625.6 623.4C626.5 621.1 625.8 619.5 625.2 618 623.8 614.8 621 612.3 619.4 613 613.3 611.8 609.3 615.4 607.5 619.9L602.2 664.7 581.1 636.5C577.6 632.4 571.5 631.3 567.5 634.8 565 637.7 563.8 643.8 566.7 646.3L599.8 689.7 592 750.4 515.8 652.9C512.2 648.8 506.9 649.2 502.1 651.2 499.7 654.1 498.5 660.2 502.1 664.2ZM520.5 862L581.8 836.2 591.3 832.2 599.3 838.1 651 877.4 659.7 884.9 658.3 894.7 650.3 959.2 648.8 969.1 639.4 973 578.1 998.9 568.6 1002.8 560.6 996.9 508.9 957.6 500.8 951.7 501.6 940.3 509.6 875.8 511 866 520.5 862Z" fill="rgba(51, 121, 194, 0.58)"></path><path d="M1651 346.9L1683.3 397.1 1647.4 400.3C1643.6 400.3 1639.8 404.1 1639.1 409.5 1640.6 414.1 1644.5 417.9 1649 416.3L1694 413.8 1720.9 451.9 1627.1 456.9C1622.5 458.4 1618.7 462.2 1618.7 466 1619.5 472.1 1623.3 475.9 1627.9 474.4L1731.7 468.7 1770.8 528 1689.1 523.8 1742 586.2 1671.1 591 1612.7 505C1613.5 503.5 1612 502.7 1610.4 502 1607.4 500.4 1603.6 500.5 1600.5 502.8 1597.5 505.1 1596.7 510.4 1598.3 515L1651.2 592.6 1604.7 594.3 1579.4 557C1578.6 554.7 1577.1 554 1575.5 553.2 1574 552.5 1570.2 552.5 1567.1 554.8 1564.1 557.1 1563.4 562.4 1565.7 565.5L1584.9 595.9 1525.3 600.7C1520 600 1517.7 604.6 1517 609.9 1517 613.8 1520.8 617.6 1526.9 616.8L1585.7 613.5 1569.8 645.6C1567.5 650.2 1570.6 655.5 1573.6 657 1578.2 659.3 1582.8 657.8 1585.1 653.2L1605.5 611.9 1652.1 610.2 1611.2 692.8C1608.9 697.3 1610.5 701.9 1615 704.2 1618.1 705.7 1624.2 704.9 1626.5 700.3L1671.9 608.6 1742.9 603.7 1699.6 671.8 1779 657.8 1747.2 722 1644.9 728.5C1638.8 729.3 1636.5 733.9 1636.6 737.7 1636.6 741.5 1640.4 745.3 1645.7 746.1L1738.8 738.8 1718.4 780.1 1672.6 784.1C1667.3 783.4 1663.5 787.2 1664.2 793.3 1664.3 797.1 1668.1 800.9 1674.2 800.1L1709.3 798.5 1682.8 852C1680.5 856.6 1682.1 861.2 1686.7 863.4S1695.8 864.2 1698.1 859.6L1724.6 806 1744.6 835C1747.6 840.3 1753 841 1756 838.7 1761.3 835.7 1762.1 830.3 1758.3 826.5L1733.7 787.7 1754.1 746.4 1804.8 824.8C1808.6 828.6 1814 829.3 1817 827 1822.4 824 1823.1 818.6 1819.3 814.8L1762.5 729.6 1794.3 665.3 1831.2 736.9 1859.1 661.3 1898.3 720.6 1852.8 812.4C1850.6 817 1853.6 822.3 1856.7 823.8 1861.3 826.1 1865.9 824.6 1868.1 820L1909.8 735.9 1935.9 775.4 1915.4 816.7C1913.2 821.3 1914.7 825.9 1919.3 828.2 1922.4 829.7 1928.5 828.9 1930.7 824.3L1946.6 792.2 1979.7 840.9C1982.7 846.2 1988.1 847 1991.9 843.2 1994.9 840.9 1997.2 836.3 1993.4 832.5L1961.1 782.2 1997 779C2000.8 779 2004.6 775.2 2004.6 771.4 2004.6 767.5 2002.3 764.5 2000.7 763.7 1999.2 763 1997.7 762.2 1995.4 763L1950.4 765.5 1923.5 727.4 2017.4 722.5C2021.9 720.9 2025.7 717.1 2025.7 713.3 2025.7 709.5 2023.4 706.4 2020.3 704.9 2018.8 704.1 2018.8 704.1 2016.5 704.9L1912.7 710.7 1873.6 651.3 1955.3 655.5 1902.4 593.2 1973.3 588.3 2031.7 674.3C2034 677.4 2038.6 679.6 2043.9 676.6 2046.9 674.3 2047.7 668.9 2046.1 664.3L1993.2 586.7 2039.7 585 2065 622.3C2066.6 626.9 2071.9 627.6 2077.3 624.5 2080.3 622.2 2081.1 616.9 2079.5 612.3L2059.5 583.4 2119.1 578.6C2124.4 579.3 2126.7 574.7 2127.4 569.4 2126.7 567.1 2124.3 564 2122.8 563.3 2121.3 562.5 2119.8 561.8 2117.5 562.5L2058.7 565.8 2074.6 533.7C2076.9 529.1 2073.8 523.8 2070.8 522.3L2070.8 522.3C2066.2 520 2061.6 521.5 2059.3 526.1L2038.9 567.4 1992.3 569.1 2033.2 486.6C2035.5 482 2033.9 477.4 2029.4 475.1S2020.2 474.4 2017.9 479L1972.5 570.7 1901.5 575.6 1944.8 507.5 1865.4 521.6 1897.2 457.3 1999.5 450.8C2005.6 450 2007.9 445.4 2007.9 441.6 2007.8 437.8 2004 434 1998.7 433.3L1906.3 439 1926 399.2 1971.8 395.2C1977.1 395.9 1980.9 392.1 1980.2 386 1980.1 382.2 1976.3 378.4 1971 377.7L1935.1 380.8 1961.6 327.3C1963.9 322.7 1962.3 318.2 1957.7 315.9S1948.6 315.2 1946.3 319.7L1919.8 373.3 1899.9 344.3C1899.1 342.1 1897.6 341.3 1896 340.5 1893 339 1890.7 339.8 1888.4 340.6 1883.1 343.7 1882.3 349 1886.1 352.8L1910.7 391.6 1890.3 432.9 1839.6 354.5C1838.1 353.7 1836.5 353 1835 352.2 1831.9 350.7 1829.7 351.5 1827.4 352.3 1822 355.3 1821.3 360.7 1825.1 364.5L1881.9 449.7 1850.1 514 1813.2 442.4 1785.3 518.1 1746.1 458.7 1791.6 366.9C1793.8 362.3 1790.8 357 1787.7 355.5 1783.1 353.2 1778.5 354.7 1776.3 359.3L1735.4 441.9 1708.5 403.9 1729 362.6C1731.2 358 1729.7 353.4 1725.1 351.1S1715.9 350.4 1713.7 355L1697.8 387.1 1664.7 338.4C1664 336.1 1662.4 335.4 1660.9 334.6 1659.4 333.8 1655.6 333.9 1652.5 336.2 1649.5 338.5 1647.2 343.1 1651 346.9ZM1815.7 483.6L1845.7 542.2 1910.5 530.5 1874.9 587.2 1917 636.6 1851.4 634.6 1828.7 695.7 1798.7 637.1 1733.9 648.8 1768.8 593.7 1727.4 542.7 1792.3 546.3 1815.7 483.6Z" fill="rgba(51, 121, 194, 0.58)"></path><path d="M2543.9 4119.6L2485.6 4106.5 2508.9 4079.1C2511.6 4076.4 2511.6 4071 2508.3 4066.6 2504 4064.5 2498.6 4064.5 2496.5 4068.8L2466.2 4102.2 2420.3 4094 2483.6 4024.5C2485.7 4020.2 2485.7 4014.8 2483.1 4012.1 2478.2 4008.3 2472.8 4008.3 2470.6 4012.6L2400.9 4089.7 2331.3 4075 2392.4 4020.6 2310.9 4013.4 2357.9 3960.1 2459.9 3980.2C2460.4 3981.8 2462.1 3981.3 2463.7 3980.8 2466.9 3979.7 2469.6 3977 2470.2 3973.2 2470.7 3969.4 2467.5 3965.1 2463.2 3962.9L2370.9 3945 2402.8 3911 2447 3919.7C2449.2 3920.8 2450.8 3920.3 2452.4 3919.8 2454.1 3919.2 2456.8 3916.5 2457.3 3912.7 2457.9 3909 2454.6 3904.6 2450.9 3904.1L2415.8 3895.9 2454.7 3850.7C2459 3847.4 2457.4 3842.6 2454.2 3838.3 2451.5 3835.6 2446.1 3835.6 2442.3 3840.4L2402.9 3884.1 2391.6 3850C2390 3845.2 2384 3843.5 2380.8 3844.6 2375.9 3846.2 2373.8 3850.5 2375.4 3855.4L2389.9 3899.1 2358 3933.1 2329 3845.6C2327.4 3840.8 2323.1 3838.6 2318.2 3840.2 2315 3841.3 2311.2 3846.1 2312.8 3851L2345 3948.2 2298 4001.5 2280.8 3922.7 2234.3 3988.5 2211.7 3920.4 2279.9 3843.9C2283.7 3839.1 2282 3834.2 2279.4 3831.5 2276.7 3828.8 2271.3 3828.8 2266.9 3832L2205.8 3902.6 2191.3 3858.9 2221.1 3823.8C2225.4 3820.6 2225.4 3815.2 2220.6 3811.4 2217.9 3808.7 2212.5 3808.7 2208.7 3813.6L2184.9 3839.4 2166.1 3782.7C2164.5 3777.9 2160.2 3775.7 2155.3 3777.3S2148.3 3783.2 2149.9 3788.1L2168.7 3844.8 2134.2 3838.3C2128.2 3836.6 2123.9 3839.9 2123.4 3843.7 2121.7 3849.6 2125 3853.9 2130.4 3853.9L2175.1 3864.2 2189.6 3908 2098.5 3887.9C2093.1 3887.9 2088.7 3891.1 2088.2 3894.9 2086.6 3900.8 2089.8 3905.1 2095.2 3905.1L2195.5 3925.8 2218.1 3993.8 2141.5 3968.9 2174.8 4042.3 2105.2 4027.7 2073 3930.5C2071.4 3925.6 2065.5 3924 2062.2 3925 2057.4 3926.7 2055.2 3931 2056.8 3935.8L2086.4 4024.9 2040 4015.1 2025.5 3971.4C2023.9 3966.5 2019.5 3964.4 2014.7 3966 2011.4 3967.1 2007.7 3971.9 2009.3 3976.8L2020.5 4010.8 1962.8 3999.4C1956.9 3997.7 1952.6 4001 1952.5 4006.4 1952 4010.1 1953.6 4015 1959 4015L2017.3 4028.1 1994 4055.5C1991.3 4058.2 1991.3 4063.6 1994 4066.3 1996.7 4069 2000.5 4069.6 2002.1 4069 2003.7 4068.5 2005.3 4068 2006.4 4065.8L2036.7 4032.4 2082.6 4040.6 2019.3 4110.1C2017.1 4114.4 2017.1 4119.8 2019.8 4122.5 2022.5 4125.2 2026.3 4125.8 2029.5 4124.7 2031.1 4124.1 2031.1 4124.1 2032.2 4122L2102 4044.9 2171.6 4059.6 2110.5 4114 2192 4121.2 2144.9 4174.5 2043 4154.4C2039.2 4153.8 2034.3 4155.4 2032.7 4161.4 2032.2 4165.2 2035.4 4169.5 2039.7 4171.6L2132 4189.6 2100.1 4223.6 2055.8 4214.8C2051.5 4212.7 2047.2 4215.9 2045.6 4221.8 2045 4225.6 2048.2 4229.9 2052.6 4232.1L2087.1 4238.6 2048.2 4283.9C2043.8 4287.1 2045.4 4292 2048.7 4296.3 2050.8 4297.4 2054.6 4298 2056.2 4297.4 2057.8 4296.9 2059.5 4296.3 2060.5 4294.2L2100 4250.5 2111.3 4284.6C2112.9 4289.4 2118.8 4291.1 2122.1 4290L2122.1 4290C2126.9 4288.4 2129.1 4284.1 2127.5 4279.2L2113 4235.5 2144.9 4201.5 2173.9 4289C2175.5 4293.8 2179.8 4296 2184.7 4294.4S2191.7 4288.5 2190.1 4283.6L2157.9 4186.4 2204.9 4133.1 2222.1 4211.9 2268.6 4146.1 2291.1 4214.2 2223 4290.7C2219.2 4295.5 2220.8 4300.4 2223.5 4303.1 2226.2 4305.8 2231.6 4305.8 2235.9 4302.6L2297.6 4233.6 2311.5 4275.7 2281.8 4310.7C2277.5 4314 2277.5 4319.4 2282.3 4323.2 2285 4325.9 2290.4 4325.9 2294.7 4322.6L2318 4295.2 2336.8 4351.9C2338.4 4356.7 2342.7 4358.9 2347.6 4357.3S2354.6 4351.3 2353 4346.5L2334.2 4289.8 2368.7 4296.3C2370.9 4297.4 2372.5 4296.9 2374.1 4296.3 2377.3 4295.3 2378.4 4293.1 2379.5 4290.9 2381.1 4285 2377.9 4280.7 2372.5 4280.7L2327.7 4270.3 2313.2 4226.6 2404.4 4246.7C2406 4246.2 2407.7 4245.7 2409.3 4245.1 2412.5 4244 2413.6 4241.9 2414.7 4239.7 2416.3 4233.8 2413.1 4229.5 2407.7 4229.5L2307.3 4208.8 2284.8 4140.8 2361.4 4165.7 2328 4092.2 2397.6 4106.9 2429.8 4204.1C2431.5 4209 2437.4 4210.6 2440.6 4209.6 2445.5 4207.9 2447.7 4203.6 2446 4198.8L2417 4111.3 2462.9 4119.5 2477.4 4163.2C2479 4168.1 2483.3 4170.2 2488.2 4168.6S2495.2 4162.7 2493.6 4157.8L2482.3 4123.8 2540.1 4135.2C2542.2 4136.3 2543.8 4135.8 2545.5 4135.2 2547.1 4134.7 2549.8 4132 2550.3 4128.2 2550.9 4124.5 2549.3 4119.6 2543.9 4119.6ZM2330.7 4138.1L2268.1 4117.5 2230.2 4171.4 2215.8 4106.1 2151 4100.6 2199.1 4055.9 2172.2 3996.5 2234.8 4017.1 2272.7 3963.2 2286.6 4026.9 2351.9 4034 2303.2 4077.1 2330.7 4138.1Z" fill="rgba(51, 121, 194, 0.58)"></path><path d="M3152.9 1452L3157.5 1571.3 3092.5 1540.5C3085.9 1536.6 3075.4 1539.4 3068.7 1547.9 3066.8 1557.3 3069.5 1567.7 3079 1569.7L3159.1 1611.1 3166.8 1704 3000 1617.3C2990.5 1615.3 2980.1 1618.1 2976.2 1624.7 2971.4 1636 2974.2 1646.4 2983.6 1648.4L3168.3 1743.7 3175.6 1885.8 3039.1 1795.6 3067.1 1956.8 2939.8 1893.2 2926.5 1685.8C2929.3 1683.9 2927.5 1681.1 2925.6 1678.2 2921.9 1672.5 2915.3 1668.6 2907.7 1669.5 2900.1 1670.4 2893.4 1678.9 2891.4 1688.3L2904 1875.9 2822 1831.6 2816.2 1741.6C2817.2 1736.9 2815.3 1734 2813.4 1731.2 2811.6 1728.3 2805 1724.5 2797.4 1725.4 2789.8 1726.2 2783.1 1734.7 2784 1742.3L2786.2 1814.3 2678.7 1762.2C2670.3 1755.5 2661.7 1761.1 2655 1769.6 2651.1 1776.2 2653.9 1786.6 2665.2 1791.4L2769.8 1845.4 2709.8 1884.6C2701.3 1890.2 2701.2 1902.5 2704.9 1908.2 2710.5 1916.8 2720 1918.8 2728.5 1913.2L2805.6 1862.7 2887.6 1907 2733.4 2007.9C2724.8 2013.5 2722.8 2022.9 2728.4 2031.5 2732.2 2037.2 2743.5 2042 2752.1 2036.4L2923.5 1924.3 3050.7 1987.9 2907.1 2061.5 3058.1 2117.7 2938.1 2196.2 2755.3 2103.7C2743.9 2098.8 2735.4 2104.5 2731.5 2111 2727.7 2117.6 2730.4 2128.1 2738.9 2134.8L2906.7 2216.7 2829.6 2267.2 2746.6 2227.6C2738.1 2220.9 2727.7 2223.7 2722.9 2235 2719 2241.6 2721.8 2252 2733.1 2256.9L2795.3 2289.6 2695.3 2355C2686.7 2360.6 2684.8 2370 2690.4 2378.6S2705.4 2389.2 2714 2383.6L2814 2318.2 2819 2388.3C2818.9 2400.6 2827.4 2407.3 2835 2406.4 2847.3 2406.5 2854 2398 2851.2 2387.6L2848.3 2295.7 2925.4 2245.3 2933.2 2431.9C2936 2442.3 2944.4 2449 2952 2448.1 2964.3 2448.2 2971 2439.8 2968.3 2429.3L2956.8 2224.7 3076.8 2146.3 3067.8 2307.1 3192.7 2205 3200 2347.1 3028.6 2459.2C3020 2464.8 3019.9 2477.1 3023.7 2482.8 3029.3 2491.4 3038.7 2493.4 3047.3 2487.8L3204.4 2385 3209.2 2479.7 3132.1 2530.2C3123.6 2535.8 3121.6 2545.2 3127.2 2553.8 3130.9 2559.5 3142.2 2564.3 3150.8 2558.7L3210.8 2519.5 3218.3 2636.9C3218.2 2649.2 3226.6 2656 3237.1 2653.2 3244.7 2652.3 3253.2 2646.7 3250.5 2636.3L3245.8 2516.9 3310.9 2547.8C3317.5 2551.7 3327.9 2548.9 3331.8 2542.3 3335.6 2535.7 3334.7 2528.1 3332.9 2525.3 3331 2522.4 3329.1 2519.6 3324.4 2518.6L3244.3 2477.2 3236.6 2384.3 3403.4 2471C3412.9 2473 3423.3 2470.2 3427.1 2463.6 3431 2457 3430.1 2449.4 3426.4 2443.7 3424.5 2440.9 3424.5 2440.9 3419.8 2439.9L3235 2344.6 3227.8 2202.5 3364.2 2292.7 3336.3 2131.5 3463.6 2195.1 3476.9 2402.5C3477.8 2410.1 3483.4 2418.7 3495.7 2418.8 3503.3 2417.9 3510 2409.4 3511.9 2400L3499.4 2212.4 3581.4 2256.7 3587.2 2346.7C3585.2 2356.1 3593.7 2362.8 3606 2362.9 3613.6 2362.1 3620.3 2353.6 3622.3 2344.1L3617.2 2274 3724.7 2326.1C3733.1 2332.8 3741.7 2327.2 3748.4 2318.7 3749.4 2314 3748.5 2306.4 3746.6 2303.6 3744.8 2300.7 3742.9 2297.9 3738.2 2296.9L3633.6 2242.9 3693.5 2203.7C3702.1 2198.1 3702.2 2185.8 3698.5 2180.1L3698.5 2180.1C3692.9 2171.5 3683.4 2169.5 3674.9 2175.1L3597.7 2225.6 3515.8 2181.3 3670 2080.4C3678.6 2074.8 3680.5 2065.4 3674.9 2056.8S3659.9 2046.3 3651.3 2051.9L3479.9 2164 3352.7 2100.4 3496.3 2026.8 3345.3 1970.6 3465.3 1892.1 3648.1 1984.6C3659.4 1989.4 3668 1983.8 3671.8 1977.2 3675.7 1970.7 3672.9 1960.2 3664.5 1953.5L3499.5 1869.7 3573.8 1821.1 3656.8 1860.7C3665.2 1867.4 3675.7 1864.6 3680.5 1853.3 3684.3 1846.7 3681.6 1836.3 3673.1 1829.6L3608.1 1798.7 3708.1 1733.3C3716.6 1727.7 3718.6 1718.3 3713 1709.7S3697.9 1699.1 3689.4 1704.7L3589.4 1770.1 3584.3 1700C3585.3 1695.3 3583.4 1692.5 3581.6 1689.6 3577.8 1683.9 3573.1 1682.9 3568.4 1681.9 3556.1 1681.8 3549.4 1690.3 3552.1 1700.7L3555.1 1792.6 3478 1843 3470.2 1656.4C3468.3 1653.6 3466.4 1650.7 3464.5 1647.9 3460.8 1642.2 3456.1 1641.2 3451.4 1640.2 3439.1 1640.1 3432.4 1648.5 3435.1 1659L3446.6 1863.6 3326.6 1942 3335.6 1781.2 3210.7 1883.3 3203.4 1741.2 3374.8 1629.1C3383.3 1623.5 3383.5 1611.2 3379.7 1605.5 3374.1 1596.9 3364.7 1594.9 3356.1 1600.5L3201.8 1701.4 3194.1 1608.6 3271.3 1558.1C3279.8 1552.5 3281.8 1543.1 3276.2 1534.5S3261.1 1524 3252.6 1529.6L3192.6 1568.8 3185.1 1451.4C3186.1 1446.6 3184.2 1443.8 3182.3 1440.9 3180.5 1438.1 3173.9 1434.2 3166.3 1435.1 3158.7 1436 3150.1 1441.6 3152.9 1452ZM3298 1854.7L3290.2 1986.2 3413.9 2031.8 3295 2093.2 3317.5 2221.3 3206.4 2151.2 3105.4 2233.6 3113.1 2102.1 2989.5 2056.5 3105.5 1996.9 3085.8 1867 3194.1 1939 3298 1854.7Z" fill="rgba(51, 121, 194, 0.58)"></path><path d="M5086.5 1747.9L5036.4 1780.4 5033.1 1744.5C5033 1740.7 5029.2 1736.9 5023.8 1736.2 5019.3 1737.8 5015.5 1741.6 5017 1746.2L5019.7 1791.2 4981.8 1818.2 4976.4 1724.4C4974.8 1719.8 4971 1716 4967.2 1716.1 4961.1 1716.9 4957.3 1720.7 4958.9 1725.3L4965.1 1829 4905.9 1868.5 4909.8 1786.8 4847.6 1839.9 4842.4 1769 4928.2 1710.3C4929.7 1711 4930.5 1709.5 4931.2 1708 4932.7 1704.9 4932.7 1701.1 4930.4 1698 4928.1 1695 4922.7 1694.3 4918.2 1695.9L4840.7 1749.2 4838.8 1702.6 4876 1677.1C4878.3 1676.3 4879.1 1674.8 4879.8 1673.3 4880.6 1671.7 4880.5 1667.9 4878.2 1664.9 4875.9 1661.9 4870.6 1661.1 4867.5 1663.5L4837.1 1682.8 4832.1 1623.3C4832.8 1617.9 4828.2 1615.7 4822.8 1615 4819 1615 4815.2 1618.9 4816.1 1625L4819.6 1683.7 4787.4 1667.9C4782.8 1665.7 4777.5 1668.8 4776 1671.8 4773.7 1676.4 4775.3 1681 4779.9 1683.3L4821.3 1703.5 4823.2 1750.1 4740.4 1709.5C4735.8 1707.3 4731.3 1708.9 4729 1713.5 4727.5 1716.5 4728.3 1722.6 4732.9 1724.9L4824.9 1769.9 4830.1 1840.8 4761.8 1797.9 4776.2 1877.2 4711.8 1845.6 4704.8 1743.4C4704 1737.3 4699.4 1735.1 4695.6 1735.1 4691.8 1735.1 4688 1739 4687.3 1744.3L4694.9 1837.4 4653.5 1817.1 4649.4 1771.4C4650.1 1766 4646.2 1762.2 4640.1 1763 4636.3 1763.1 4632.5 1766.9 4633.3 1773L4635.2 1808.1 4581.5 1781.8C4576.9 1779.6 4572.3 1781.2 4570.1 1785.8S4569.4 1794.9 4574 1797.2L4627.6 1823.4 4598.8 1843.5C4593.5 1846.6 4592.8 1852 4595.1 1855 4598.2 1860.3 4603.5 1861 4607.3 1857.2L4646 1832.4 4687.4 1852.7 4609.2 1903.7C4605.4 1907.6 4604.7 1912.9 4607 1916 4610.1 1921.3 4615.5 1922 4619.3 1918.2L4704.3 1861 4768.7 1892.5 4697.2 1929.7 4773 1957.3 4713.8 1996.8 4621.8 1951.7C4617.2 1949.5 4611.9 1952.6 4610.4 1955.6 4608.2 1960.2 4609.7 1964.8 4614.3 1967L4698.6 2008.3 4659.2 2034.6 4617.8 2014.3C4613.2 2012.1 4608.6 2013.7 4606.4 2018.2 4604.9 2021.3 4605.7 2027.4 4610.3 2029.7L4642.5 2045.4 4593.9 2078.7C4588.6 2081.7 4587.9 2087.1 4591.7 2090.9 4594 2093.9 4598.6 2096.2 4602.4 2092.3L4652.5 2059.8 4655.9 2095.7C4655.9 2099.5 4659.7 2103.3 4663.6 2103.3 4667.4 2103.2 4670.4 2100.9 4671.2 2099.4 4671.9 2097.8 4672.7 2096.3 4671.9 2094L4669.2 2049 4707.1 2022 4712.5 2115.8C4714.1 2120.4 4717.9 2124.2 4721.7 2124.2 4725.6 2124.1 4728.6 2121.8 4730.1 2118.7 4730.8 2117.2 4730.8 2117.2 4730.1 2114.9L4723.9 2011.2 4783.1 1971.8 4779.2 2053.5 4841.3 2000.3 4846.5 2071.2 4760.7 2129.9C4757.7 2132.2 4755.4 2136.8 4758.5 2142.2 4760.8 2145.2 4766.2 2145.9 4770.8 2144.4L4848.2 2091 4850.1 2137.6 4812.9 2163.1C4808.3 2164.6 4807.6 2170 4810.7 2175.3 4813 2178.3 4818.4 2179.1 4822.9 2177.5L4851.8 2157.4 4856.8 2216.9C4856.1 2222.3 4860.7 2224.5 4866.1 2225.2 4868.4 2224.5 4871.4 2222.1 4872.1 2220.6 4872.9 2219.1 4873.6 2217.5 4872.9 2215.3L4869.3 2156.5 4901.5 2172.3C4906.1 2174.5 4911.4 2171.4 4912.9 2168.4L4912.9 2168.4C4915.2 2163.8 4913.6 2159.2 4909 2156.9L4867.6 2136.7 4865.7 2090.1 4948.5 2130.7C4953.1 2132.9 4957.6 2131.4 4959.9 2126.8S4960.6 2117.6 4956 2115.3L4864 2070.3 4858.9 1999.4 4927.1 2042.3 4912.7 1963 4977.1 1994.6 4984.1 2096.8C4984.9 2102.9 4989.5 2105.1 4993.3 2105.1 4997.1 2105.1 5000.9 2101.2 5001.6 2095.9L4995.5 2003.6 5035.4 2023.1 5039.6 2068.9C5038.8 2074.2 5042.7 2078 5048.8 2077.2 5052.6 2077.1 5056.4 2073.3 5057.1 2067.9L5053.8 2032.1 5107.4 2058.4C5112 2060.6 5116.6 2059.1 5118.8 2054.5S5119.5 2045.3 5114.9 2043L5061.3 2016.8 5090.1 1996.7C5092.4 1995.9 5093.1 1994.4 5093.9 1992.8 5095.4 1989.8 5094.6 1987.5 5093.8 1985.2 5090.7 1979.9 5085.4 1979.2 5081.6 1983L5042.9 2007.8 5001.5 1987.5 5079.7 1936.5C5080.4 1934.9 5081.2 1933.4 5081.9 1931.9 5083.4 1928.8 5082.7 1926.5 5081.9 1924.2 5078.8 1918.9 5073.4 1918.2 5069.6 1922.1L4984.6 1979.2 4920.2 1947.7 4991.7 1910.5 4915.9 1882.9 4975.1 1843.5 5067.1 1888.5C5071.7 1890.7 5077 1887.6 5078.5 1884.6 5080.7 1880 5079.2 1875.4 5074.6 1873.2L4991.8 1832.6 5029.7 1805.6 5071.1 1825.9C5075.7 1828.1 5080.3 1826.6 5082.5 1822S5083.2 1812.8 5078.6 1810.5L5046.4 1794.8 5095 1761.6C5097.3 1760.8 5098.1 1759.2 5098.8 1757.7 5099.6 1756.2 5099.5 1752.4 5097.2 1749.3 5094.9 1746.3 5090.3 1744 5086.5 1747.9ZM4950.5 1913.1L4892 1943.4 4904 2008.1 4847.2 1972.7 4797.9 2015.1 4799.7 1949.5 4738.4 1927.1 4796.9 1896.8 4785 1832.1 4840.2 1866.7 4891 1825.1 4887.7 1890 4950.5 1913.1Z" fill="rgba(51, 121, 194, 0.58)"></path></g><defs><mask id="SvgjsMask1021"><rect width="7680" height="4320" fill="#ffffff"></rect></mask><linearGradient x1="10.94%" y1="-19.44%" x2="89.06%" y2="119.44%" gradientUnits="userSpaceOnUse" id="SvgjsLinearGradient1022"><stop stop-color="#0e2a47" offset="0"></stop><stop stop-color="#00459e" offset="1"></stop></linearGradient><filter id="SvgjsFilter1023"><feGaussianBlur stdDeviation="1"></feGaussianBlur></filter></defs></svg>