<svg xmlns="http://www.w3.org/2000/svg" version="1.1" xmlns:xlink="http://www.w3.org/1999/xlink" xmlns:svgjs="http://svgjs.com/svgjs" width="7680" height="4320" preserveAspectRatio="none" viewBox="0 0 7680 4320"><g mask="url(&quot;#SvgjsMask2461&quot;)" fill="none"><rect width="7680" height="4320" x="0" y="0" fill="url(#SvgjsLinearGradient2462)"></rect><path d="M7680 0L4695.51 0L7680 1449.23z" fill="rgba(255, 255, 255, .1)"></path><path d="M4695.51 0L7680 1449.23L7680 2250.88L2590.28 0z" fill="rgba(255, 255, 255, .075)"></path><path d="M2590.2800000000007 0L7680 2250.88L7680 3469.49L1178.4400000000007 0z" fill="rgba(255, 255, 255, .05)"></path><path d="M1178.4400000000005 0L7680 3469.49L7680 3636.52L1165.1100000000006 0z" fill="rgba(255, 255, 255, .025)"></path><path d="M0 4320L597.4 4320L0 2788.91z" fill="rgba(0, 0, 0, .1)"></path><path d="M0 2788.91L597.4 4320L1099.38 4320L0 1915.98z" fill="rgba(0, 0, 0, .075)"></path><path d="M0 1915.98L1099.38 4320L1488.93 4320L0 1772.81z" fill="rgba(0, 0, 0, .05)"></path><path d="M0 1772.81L1488.93 4320L2260.63 4320L0 1189.46z" fill="rgba(0, 0, 0, .025)"></path></g><defs><mask id="SvgjsMask2461"><rect width="7680" height="4320" fill="#ffffff"></rect></mask><linearGradient x1="10.94%" y1="-19.44%" x2="89.06%" y2="119.44%" gradientUnits="userSpaceOnUse" id="SvgjsLinearGradient2462"><stop stop-color="rgba(179, 82, 12, 1)" offset="0"></stop><stop stop-color="rgba(227, 213, 6, 1)" offset="1"></stop></linearGradient></defs></svg>