<svg xmlns="http://www.w3.org/2000/svg" version="1.1" xmlns:xlink="http://www.w3.org/1999/xlink" xmlns:svgjs="http://svgjs.com/svgjs" width="7680" height="4320" preserveAspectRatio="none" viewBox="0 0 7680 4320"><g mask="url(&quot;#SvgjsMask1277&quot;)" fill="none"><rect width="7680" height="4320" x="0" y="0" fill="url(#SvgjsLinearGradient1278)"></rect><path d="M8064 4320L0 4320 L0 988.62Q166.53 771.15, 384 937.69Q584.02 753.72, 768 953.74Q1162.59 708.33, 1408 1102.92Q1627.97 682.89, 2048 902.87Q2268.14 739.01, 2432 959.16Q2903.13 1046.29, 2816 1517.42Q3083.24 1400.66, 3200 1667.91Q3216.06 1299.97, 3584 1316.03Q3592.63 940.65, 3968 949.28Q4147.28 744.57, 4352 923.85Q4804.13 735.98, 4992 1188.11Q5696.18 1252.28, 5632 1956.46Q5871.91 1812.37, 6016 2052.28Q6029.68 1425.96, 6656 1439.63Q6993.65 1137.29, 7296 1474.94Q7683.99 1478.93, 7680 1866.92Q7670.32 1473.24, 8064 1463.57z" fill="#182f5d"></path><path d="M8192 4320L0 4320 L0 1921.63Q357.97 1639.61, 640 1997.58Q1066.72 1784.3, 1280 2211.01Q1701.85 2248.86, 1664 2670.72Q1656.51 2023.22, 2304 2015.73Q2543.34 1615.08, 2944 1854.42Q3237.78 1764.2, 3328 2057.98Q3770.26 1860.24, 3968 2302.51Q4128.39 2078.9, 4352 2239.28Q4939.66 2186.95, 4992 2774.61Q5216.38 2614.99, 5376 2839.36Q5575.04 2654.4, 5760 2853.44Q6060.56 2513.99, 6400 2814.55Q6469.68 2500.23, 6784 2569.9Q6760.72 2162.61, 7168 2139.33Q7221.01 1808.34, 7552 1861.34Q7835.7 1505.04, 8192 1788.74z" fill="#25467d"></path><path d="M7936 4320L0 4320 L0 3600.59Q353.68 3314.28, 640 3667.96Q683.62 3071.58, 1280 3115.2Q1440.36 2635.56, 1920 2795.93Q2285.16 2521.09, 2560 2886.25Q2761.34 2447.59, 3200 2648.93Q3494.19 2559.12, 3584 2853.31Q4210.58 2839.89, 4224 3466.47Q4407.93 3266.4, 4608 3450.33Q4797.94 3000.27, 5248 3190.21Q5143.49 2701.7, 5632 2597.2Q6060.14 2385.34, 6272 2813.48Q6839.75 2741.23, 6912 3308.98Q7167.08 3180.06, 7296 3435.14Q7781.55 3280.68, 7936 3766.23z" fill="#356cb1"></path><path d="M7808 4320L0 4320 L0 4592.2Q-122.04 4086.16, 384 3964.12Q465.7 3661.82, 768 3743.51Q990.05 3581.56, 1152 3803.6Q1349.88 3617.48, 1536 3815.36Q1762.08 3657.44, 1920 3883.52Q2309.57 3889.09, 2304 4278.66Q2668.55 4003.21, 2944 4367.76Q3195.04 4234.8, 3328 4485.84Q3606.93 4124.77, 3968 4403.71Q4284.56 4336.27, 4352 4652.83Q4371.89 4032.72, 4992 4052.6Q5056.74 3733.34, 5376 3798.07Q5467.15 3505.22, 5760 3596.37Q6092.59 3288.95, 6400 3621.54Q6688.31 3525.85, 6784 3814.15Q7051.78 3441.93, 7424 3709.71Q7515.16 3416.88, 7808 3508.04z" fill="rgba(180, 176, 176, 1)"></path></g><defs><mask id="SvgjsMask1277"><rect width="7680" height="4320" fill="#ffffff"></rect></mask><linearGradient x1="10.94%" y1="-19.44%" x2="89.06%" y2="119.44%" gradientUnits="userSpaceOnUse" id="SvgjsLinearGradient1278"><stop stop-color="#0e2a47" offset="0"></stop><stop stop-color="rgba(0, 69, 158, 1)" offset="1"></stop></linearGradient></defs></svg>