<svg xmlns="http://www.w3.org/2000/svg" version="1.1" xmlns:xlink="http://www.w3.org/1999/xlink" xmlns:svgjs="http://svgjs.com/svgjs" width="7680" height="4320" preserveAspectRatio="none" viewBox="0 0 7680 4320"><g mask="url(&quot;#SvgjsMask9829&quot;)" fill="none"><rect width="7680" height="4320" x="0" y="0" fill="url(#SvgjsLinearGradient9830)"></rect><use xlink:href="#SvgjsSymbol9837" x="0" y="0"></use><use xlink:href="#SvgjsSymbol9837" x="0" y="720"></use><use xlink:href="#SvgjsSymbol9837" x="0" y="1440"></use><use xlink:href="#SvgjsSymbol9837" x="0" y="2160"></use><use xlink:href="#SvgjsSymbol9837" x="0" y="2880"></use><use xlink:href="#SvgjsSymbol9837" x="0" y="3600"></use><use xlink:href="#SvgjsSymbol9837" x="720" y="0"></use><use xlink:href="#SvgjsSymbol9837" x="720" y="720"></use><use xlink:href="#SvgjsSymbol9837" x="720" y="1440"></use><use xlink:href="#SvgjsSymbol9837" x="720" y="2160"></use><use xlink:href="#SvgjsSymbol9837" x="720" y="2880"></use><use xlink:href="#SvgjsSymbol9837" x="720" y="3600"></use><use xlink:href="#SvgjsSymbol9837" x="1440" y="0"></use><use xlink:href="#SvgjsSymbol9837" x="1440" y="720"></use><use xlink:href="#SvgjsSymbol9837" x="1440" y="1440"></use><use xlink:href="#SvgjsSymbol9837" x="1440" y="2160"></use><use xlink:href="#SvgjsSymbol9837" x="1440" y="2880"></use><use xlink:href="#SvgjsSymbol9837" x="1440" y="3600"></use><use xlink:href="#SvgjsSymbol9837" x="2160" y="0"></use><use xlink:href="#SvgjsSymbol9837" x="2160" y="720"></use><use xlink:href="#SvgjsSymbol9837" x="2160" y="1440"></use><use xlink:href="#SvgjsSymbol9837" x="2160" y="2160"></use><use xlink:href="#SvgjsSymbol9837" x="2160" y="2880"></use><use xlink:href="#SvgjsSymbol9837" x="2160" y="3600"></use><use xlink:href="#SvgjsSymbol9837" x="2880" y="0"></use><use xlink:href="#SvgjsSymbol9837" x="2880" y="720"></use><use xlink:href="#SvgjsSymbol9837" x="2880" y="1440"></use><use xlink:href="#SvgjsSymbol9837" x="2880" y="2160"></use><use xlink:href="#SvgjsSymbol9837" x="2880" y="2880"></use><use xlink:href="#SvgjsSymbol9837" x="2880" y="3600"></use><use xlink:href="#SvgjsSymbol9837" x="3600" y="0"></use><use xlink:href="#SvgjsSymbol9837" x="3600" y="720"></use><use xlink:href="#SvgjsSymbol9837" x="3600" y="1440"></use><use xlink:href="#SvgjsSymbol9837" x="3600" y="2160"></use><use xlink:href="#SvgjsSymbol9837" x="3600" y="2880"></use><use xlink:href="#SvgjsSymbol9837" x="3600" y="3600"></use><use xlink:href="#SvgjsSymbol9837" x="4320" y="0"></use><use xlink:href="#SvgjsSymbol9837" x="4320" y="720"></use><use xlink:href="#SvgjsSymbol9837" x="4320" y="1440"></use><use xlink:href="#SvgjsSymbol9837" x="4320" y="2160"></use><use xlink:href="#SvgjsSymbol9837" x="4320" y="2880"></use><use xlink:href="#SvgjsSymbol9837" x="4320" y="3600"></use><use xlink:href="#SvgjsSymbol9837" x="5040" y="0"></use><use xlink:href="#SvgjsSymbol9837" x="5040" y="720"></use><use xlink:href="#SvgjsSymbol9837" x="5040" y="1440"></use><use xlink:href="#SvgjsSymbol9837" x="5040" y="2160"></use><use xlink:href="#SvgjsSymbol9837" x="5040" y="2880"></use><use xlink:href="#SvgjsSymbol9837" x="5040" y="3600"></use><use xlink:href="#SvgjsSymbol9837" x="5760" y="0"></use><use xlink:href="#SvgjsSymbol9837" x="5760" y="720"></use><use xlink:href="#SvgjsSymbol9837" x="5760" y="1440"></use><use xlink:href="#SvgjsSymbol9837" x="5760" y="2160"></use><use xlink:href="#SvgjsSymbol9837" x="5760" y="2880"></use><use xlink:href="#SvgjsSymbol9837" x="5760" y="3600"></use><use xlink:href="#SvgjsSymbol9837" x="6480" y="0"></use><use xlink:href="#SvgjsSymbol9837" x="6480" y="720"></use><use xlink:href="#SvgjsSymbol9837" x="6480" y="1440"></use><use xlink:href="#SvgjsSymbol9837" x="6480" y="2160"></use><use xlink:href="#SvgjsSymbol9837" x="6480" y="2880"></use><use xlink:href="#SvgjsSymbol9837" x="6480" y="3600"></use><use xlink:href="#SvgjsSymbol9837" x="7200" y="0"></use><use xlink:href="#SvgjsSymbol9837" x="7200" y="720"></use><use xlink:href="#SvgjsSymbol9837" x="7200" y="1440"></use><use xlink:href="#SvgjsSymbol9837" x="7200" y="2160"></use><use xlink:href="#SvgjsSymbol9837" x="7200" y="2880"></use><use xlink:href="#SvgjsSymbol9837" x="7200" y="3600"></use></g><defs><mask id="SvgjsMask9829"><rect width="7680" height="4320" fill="#ffffff"></rect></mask><linearGradient x1="10.94%" y1="-19.44%" x2="89.06%" y2="119.44%" gradientUnits="userSpaceOnUse" id="SvgjsLinearGradient9830"><stop stop-color="#0e2a47" offset="0"></stop><stop stop-color="rgba(3, 33, 43, 1)" offset="1"></stop></linearGradient><path d="M-1 0 a1 1 0 1 0 2 0 a1 1 0 1 0 -2 0z" id="SvgjsPath9836"></path><path d="M-3 0 a3 3 0 1 0 6 0 a3 3 0 1 0 -6 0z" id="SvgjsPath9832"></path><path d="M-5 0 a5 5 0 1 0 10 0 a5 5 0 1 0 -10 0z" id="SvgjsPath9831"></path><path d="M2 -2 L-2 2z" id="SvgjsPath9835"></path><path d="M6 -6 L-6 6z" id="SvgjsPath9833"></path><path d="M30 -30 L-30 30z" id="SvgjsPath9834"></path></defs><symbol id="SvgjsSymbol9837"><use xlink:href="#SvgjsPath9831" x="30" y="30" stroke="#1c538e"></use><use xlink:href="#SvgjsPath9831" x="30" y="90" stroke="#1c538e"></use><use xlink:href="#SvgjsPath9832" x="30" y="150" stroke="#1c538e"></use><use xlink:href="#SvgjsPath9831" x="30" y="210" stroke="#1c538e"></use><use xlink:href="#SvgjsPath9833" x="30" y="270" stroke="#1c538e"></use><use xlink:href="#SvgjsPath9834" x="30" y="330" stroke="#1c538e" stroke-width="3"></use><use xlink:href="#SvgjsPath9835" x="30" y="390" stroke="#1c538e"></use><use xlink:href="#SvgjsPath9835" x="30" y="450" stroke="#1c538e"></use><use xlink:href="#SvgjsPath9834" x="30" y="510" stroke="#1c538e" stroke-width="3"></use><use xlink:href="#SvgjsPath9836" x="30" y="570" stroke="#1c538e"></use><use xlink:href="#SvgjsPath9835" x="30" y="630" stroke="#1c538e"></use><use xlink:href="#SvgjsPath9836" x="30" y="690" stroke="#1c538e"></use><use xlink:href="#SvgjsPath9835" x="90" y="30" stroke="#1c538e"></use><use xlink:href="#SvgjsPath9832" x="90" y="90" stroke="#1c538e"></use><use xlink:href="#SvgjsPath9831" x="90" y="150" stroke="#1c538e"></use><use xlink:href="#SvgjsPath9833" x="90" y="210" stroke="#1c538e"></use><use xlink:href="#SvgjsPath9831" x="90" y="270" stroke="#1c538e"></use><use xlink:href="#SvgjsPath9831" x="90" y="330" stroke="#1c538e"></use><use xlink:href="#SvgjsPath9832" x="90" y="390" stroke="#1c538e"></use><use xlink:href="#SvgjsPath9831" x="90" y="450" stroke="#1c538e"></use><use xlink:href="#SvgjsPath9831" x="90" y="510" stroke="#1c538e"></use><use xlink:href="#SvgjsPath9835" x="90" y="570" stroke="#1c538e"></use><use xlink:href="#SvgjsPath9835" x="90" y="630" stroke="#1c538e"></use><use xlink:href="#SvgjsPath9831" x="90" y="690" stroke="#1c538e"></use><use xlink:href="#SvgjsPath9835" x="150" y="30" stroke="#1c538e"></use><use xlink:href="#SvgjsPath9835" x="150" y="90" stroke="#1c538e"></use><use xlink:href="#SvgjsPath9835" x="150" y="150" stroke="#1c538e"></use><use xlink:href="#SvgjsPath9831" x="150" y="210" stroke="#1c538e"></use><use xlink:href="#SvgjsPath9831" x="150" y="270" stroke="#1c538e"></use><use xlink:href="#SvgjsPath9834" x="150" y="330" stroke="#1c538e" stroke-width="3"></use><use xlink:href="#SvgjsPath9831" x="150" y="390" stroke="#1c538e"></use><use xlink:href="#SvgjsPath9833" x="150" y="450" stroke="#1c538e"></use><use xlink:href="#SvgjsPath9831" x="150" y="510" stroke="#1c538e"></use><use xlink:href="#SvgjsPath9835" x="150" y="570" stroke="#1c538e"></use><use xlink:href="#SvgjsPath9835" x="150" y="630" stroke="#1c538e"></use><use xlink:href="#SvgjsPath9832" x="150" y="690" stroke="#1c538e"></use><use xlink:href="#SvgjsPath9834" x="210" y="30" stroke="#1c538e" stroke-width="3"></use><use xlink:href="#SvgjsPath9832" x="210" y="90" stroke="#1c538e"></use><use xlink:href="#SvgjsPath9831" x="210" y="150" stroke="#1c538e"></use><use xlink:href="#SvgjsPath9832" x="210" y="210" stroke="#1c538e"></use><use xlink:href="#SvgjsPath9833" x="210" y="270" stroke="#1c538e"></use><use xlink:href="#SvgjsPath9832" x="210" y="330" stroke="#1c538e"></use><use xlink:href="#SvgjsPath9833" x="210" y="390" stroke="#1c538e"></use><use xlink:href="#SvgjsPath9831" x="210" y="450" stroke="#1c538e"></use><use xlink:href="#SvgjsPath9831" x="210" y="510" stroke="#1c538e"></use><use xlink:href="#SvgjsPath9834" x="210" y="570" stroke="#1c538e" stroke-width="3"></use><use xlink:href="#SvgjsPath9833" x="210" y="630" stroke="#1c538e"></use><use xlink:href="#SvgjsPath9833" x="210" y="690" stroke="#1c538e"></use><use xlink:href="#SvgjsPath9833" x="270" y="30" stroke="#1c538e"></use><use xlink:href="#SvgjsPath9831" x="270" y="90" stroke="#1c538e"></use><use xlink:href="#SvgjsPath9833" x="270" y="150" stroke="#1c538e"></use><use xlink:href="#SvgjsPath9831" x="270" y="210" stroke="#1c538e"></use><use xlink:href="#SvgjsPath9835" x="270" y="270" stroke="#1c538e"></use><use xlink:href="#SvgjsPath9831" x="270" y="330" stroke="#1c538e"></use><use xlink:href="#SvgjsPath9832" x="270" y="390" stroke="#1c538e"></use><use xlink:href="#SvgjsPath9831" x="270" y="450" stroke="#1c538e"></use><use xlink:href="#SvgjsPath9835" x="270" y="510" stroke="#1c538e"></use><use xlink:href="#SvgjsPath9831" x="270" y="570" stroke="#1c538e"></use><use xlink:href="#SvgjsPath9833" x="270" y="630" stroke="#1c538e"></use><use xlink:href="#SvgjsPath9833" x="270" y="690" stroke="#1c538e"></use><use xlink:href="#SvgjsPath9836" x="330" y="30" stroke="#1c538e"></use><use xlink:href="#SvgjsPath9833" x="330" y="90" stroke="#1c538e"></use><use xlink:href="#SvgjsPath9831" x="330" y="150" stroke="#1c538e"></use><use xlink:href="#SvgjsPath9835" x="330" y="210" stroke="#1c538e"></use><use xlink:href="#SvgjsPath9833" x="330" y="270" stroke="#1c538e"></use><use xlink:href="#SvgjsPath9836" x="330" y="330" stroke="#1c538e"></use><use xlink:href="#SvgjsPath9835" x="330" y="390" stroke="#1c538e"></use><use xlink:href="#SvgjsPath9833" x="330" y="450" stroke="#1c538e"></use><use xlink:href="#SvgjsPath9831" x="330" y="510" stroke="#1c538e"></use><use xlink:href="#SvgjsPath9832" x="330" y="570" stroke="#1c538e"></use><use xlink:href="#SvgjsPath9833" x="330" y="630" stroke="#1c538e"></use><use xlink:href="#SvgjsPath9832" x="330" y="690" stroke="#1c538e"></use><use xlink:href="#SvgjsPath9835" x="390" y="30" stroke="#1c538e"></use><use xlink:href="#SvgjsPath9831" x="390" y="90" stroke="#1c538e"></use><use xlink:href="#SvgjsPath9831" x="390" y="150" stroke="#1c538e"></use><use xlink:href="#SvgjsPath9836" x="390" y="210" stroke="#1c538e"></use><use xlink:href="#SvgjsPath9833" x="390" y="270" stroke="#1c538e"></use><use xlink:href="#SvgjsPath9831" x="390" y="330" stroke="#1c538e"></use><use xlink:href="#SvgjsPath9836" x="390" y="390" stroke="#1c538e"></use><use xlink:href="#SvgjsPath9836" x="390" y="450" stroke="#1c538e"></use><use xlink:href="#SvgjsPath9831" x="390" y="510" stroke="#1c538e"></use><use xlink:href="#SvgjsPath9835" x="390" y="570" stroke="#1c538e"></use><use xlink:href="#SvgjsPath9833" x="390" y="630" stroke="#1c538e"></use><use xlink:href="#SvgjsPath9831" x="390" y="690" stroke="#1c538e"></use><use xlink:href="#SvgjsPath9834" x="450" y="30" stroke="#1c538e" stroke-width="3"></use><use xlink:href="#SvgjsPath9833" x="450" y="90" stroke="#1c538e"></use><use xlink:href="#SvgjsPath9833" x="450" y="150" stroke="#1c538e"></use><use xlink:href="#SvgjsPath9831" x="450" y="210" stroke="#1c538e"></use><use xlink:href="#SvgjsPath9833" x="450" y="270" stroke="#1c538e"></use><use xlink:href="#SvgjsPath9831" x="450" y="330" stroke="#1c538e"></use><use xlink:href="#SvgjsPath9831" x="450" y="390" stroke="#1c538e"></use><use xlink:href="#SvgjsPath9831" x="450" y="450" stroke="#1c538e"></use><use xlink:href="#SvgjsPath9834" x="450" y="510" stroke="#1c538e" stroke-width="3"></use><use xlink:href="#SvgjsPath9831" x="450" y="570" stroke="#1c538e"></use><use xlink:href="#SvgjsPath9835" x="450" y="630" stroke="#1c538e"></use><use xlink:href="#SvgjsPath9835" x="450" y="690" stroke="#1c538e"></use><use xlink:href="#SvgjsPath9835" x="510" y="30" stroke="#1c538e"></use><use xlink:href="#SvgjsPath9833" x="510" y="90" stroke="#1c538e"></use><use xlink:href="#SvgjsPath9833" x="510" y="150" stroke="#1c538e"></use><use xlink:href="#SvgjsPath9831" x="510" y="210" stroke="#1c538e"></use><use xlink:href="#SvgjsPath9832" x="510" y="270" stroke="#1c538e"></use><use xlink:href="#SvgjsPath9836" x="510" y="330" stroke="#1c538e"></use><use xlink:href="#SvgjsPath9831" x="510" y="390" stroke="#1c538e"></use><use xlink:href="#SvgjsPath9831" x="510" y="450" stroke="#1c538e"></use><use xlink:href="#SvgjsPath9834" x="510" y="510" stroke="#1c538e" stroke-width="3"></use><use xlink:href="#SvgjsPath9833" x="510" y="570" stroke="#1c538e"></use><use xlink:href="#SvgjsPath9832" x="510" y="630" stroke="#1c538e"></use><use xlink:href="#SvgjsPath9833" x="510" y="690" stroke="#1c538e"></use><use xlink:href="#SvgjsPath9836" x="570" y="30" stroke="#1c538e"></use><use xlink:href="#SvgjsPath9833" x="570" y="90" stroke="#1c538e"></use><use xlink:href="#SvgjsPath9832" x="570" y="150" stroke="#1c538e"></use><use xlink:href="#SvgjsPath9832" x="570" y="210" stroke="#1c538e"></use><use xlink:href="#SvgjsPath9833" x="570" y="270" stroke="#1c538e"></use><use xlink:href="#SvgjsPath9831" x="570" y="330" stroke="#1c538e"></use><use xlink:href="#SvgjsPath9834" x="570" y="390" stroke="#1c538e" stroke-width="3"></use><use xlink:href="#SvgjsPath9833" x="570" y="450" stroke="#1c538e"></use><use xlink:href="#SvgjsPath9831" x="570" y="510" stroke="#1c538e"></use><use xlink:href="#SvgjsPath9832" x="570" y="570" stroke="#1c538e"></use><use xlink:href="#SvgjsPath9832" x="570" y="630" stroke="#1c538e"></use><use xlink:href="#SvgjsPath9835" x="570" y="690" stroke="#1c538e"></use><use xlink:href="#SvgjsPath9831" x="630" y="30" stroke="#1c538e"></use><use xlink:href="#SvgjsPath9831" x="630" y="90" stroke="#1c538e"></use><use xlink:href="#SvgjsPath9833" x="630" y="150" stroke="#1c538e"></use><use xlink:href="#SvgjsPath9834" x="630" y="210" stroke="#1c538e" stroke-width="3"></use><use xlink:href="#SvgjsPath9833" x="630" y="270" stroke="#1c538e"></use><use xlink:href="#SvgjsPath9833" x="630" y="330" stroke="#1c538e"></use><use xlink:href="#SvgjsPath9833" x="630" y="390" stroke="#1c538e"></use><use xlink:href="#SvgjsPath9833" x="630" y="450" stroke="#1c538e"></use><use xlink:href="#SvgjsPath9833" x="630" y="510" stroke="#1c538e"></use><use xlink:href="#SvgjsPath9836" x="630" y="570" stroke="#1c538e"></use><use xlink:href="#SvgjsPath9833" x="630" y="630" stroke="#1c538e"></use><use xlink:href="#SvgjsPath9832" x="630" y="690" stroke="#1c538e"></use><use xlink:href="#SvgjsPath9832" x="690" y="30" stroke="#1c538e"></use><use xlink:href="#SvgjsPath9831" x="690" y="90" stroke="#1c538e"></use><use xlink:href="#SvgjsPath9833" x="690" y="150" stroke="#1c538e"></use><use xlink:href="#SvgjsPath9831" x="690" y="210" stroke="#1c538e"></use><use xlink:href="#SvgjsPath9831" x="690" y="270" stroke="#1c538e"></use><use xlink:href="#SvgjsPath9835" x="690" y="330" stroke="#1c538e"></use><use xlink:href="#SvgjsPath9836" x="690" y="390" stroke="#1c538e"></use><use xlink:href="#SvgjsPath9836" x="690" y="450" stroke="#1c538e"></use><use xlink:href="#SvgjsPath9831" x="690" y="510" stroke="#1c538e"></use><use xlink:href="#SvgjsPath9831" x="690" y="570" stroke="#1c538e"></use><use xlink:href="#SvgjsPath9833" x="690" y="630" stroke="#1c538e"></use><use xlink:href="#SvgjsPath9832" x="690" y="690" stroke="#1c538e"></use></symbol></svg>